<svg width="950" height="768" xmlns="http://www.w3.org/2000/svg">
 <metadata id="metadata8">image/svg+xml</metadata>
 <defs>
  <clipPath clipPathUnits="userSpaceOnUse" id="clipPath18">
   <path d="m-342.788177,1178.772247l1400,0l0,-980l-1400,0l0,980z" id="path16"/>
  </clipPath>
 </defs>
 <g>
  <title>background</title>
  <rect fill="none" id="canvas_background" height="770" width="952" y="-1" x="-1"/>
 </g>
 <g>
  <title>Layer 1</title>
  <g id="g10" transform="matrix(1.3333333,0,0,-1.3333333,0,1306.6667) ">
   <g id="g12">
    <g id="g14" clip-path="url(#clipPath18)">
     <g id="g20">
      <path fill="#49befe" fill-rule="nonzero" d="m143.254517,892.559662c0.339,1.889 0.62,3.453 0.96,5.342c0.179,0.211 0.159,0.49 0.188,0.75c0.601,5.272 2.073,10.292 4.613,14.946c7.523,13.786 19.09,21.648 34.719,23.454c4.6,0.531 9.161,0.176 13.67,-0.825c0.825,-0.183 1.274,-0.122 1.278,0.842c0.001,0.35 0.13,0.7 0.206,1.049c3.792,17.619 14.37,29.042 31.525,34.386c2.219,0.691 4.551,1.022 6.836,1.501c3.184,-0.055 6.248,-0.107 9.431,-0.161c0.17,-0.058 0.364,-0.047 0.544,-0.068c19.239,-2.309 34.855,-17.241 37.984,-36.403c0.199,-1.215 0.525,-1.329 1.635,-1.088c6.53,1.422 13.057,1.295 19.564,-0.226c21.87,-5.109 36.64,-27.127 32.979,-49.329c-2.249,-13.634 -9.36,-24.048 -21.234,-31.15c-0.876,-0.524 -1.069,-0.927 -0.679,-1.884c2.161,-5.305 3.113,-10.83 3.098,-16.569c-0.05,-18.587 -12.099,-35.39 -29.76,-41.258c-9.663,-3.211 -25.827,-1.624 -35.441,1.751c-1.058,0.372 -1.458,0.28 -1.542,-0.786c-0.052,-0.663 -0.097,-1.677 -0.157,-2.339c-2.015,-22.441 -3.254,-316.632 -5.051,-337.257c-0.24,-2.747 -2.049,-3.581 -8.523,-3.878c-3.126,0.804 -4.57,1.599 -4.754,3.763c-1.105,12.955 -1.836,324.022 -3.171,339.414c-0.104,1.197 -0.335,1.548 -1.629,1.084c-6.803,-2.441 -22.32,-4.523 -29.441,-3.533c-27.988,3.89 -45.011,32.971 -34.743,59.323c0.465,1.193 0.332,1.686 -0.789,2.359c-10.629,6.377 -17.441,15.603 -20.343,27.673c-0.727,3.022 -1.086,6.133 -1.973,9.117" id="path22"/>
     </g>
     <g id="g24">
      <path fill="#161d38" fill-rule="nonzero" d="m291.719818,464.633362c-16.323,0.129 -32.648,0.066 -48.973,0.066c-16.528,0 -33.057,0.03 -49.585,-0.04c-1.982,-0.009 -3.459,0.549 -4.899,1.887c-18.895,17.551 -28.307,39.147 -27.114,64.961c1.726,37.344 28.921,68.783 65.574,76.279c1.994,0.408 4.026,0.633 6.046,0.909c3.26,0.445 3.608,0.777 3.62,4.024c0.026,6.53 0.009,13.06 0.008,19.589c0,3.776 0.036,7.551 -0.014,11.325c-0.039,2.852 -0.585,3.383 -3.423,3.407c-4.183,0.035 -8.366,-0.009 -12.549,0.018c-2.454,0.015 -2.478,0.047 -2.504,2.586c-0.027,2.653 0.05,5.307 -0.018,7.958c-0.042,1.589 0.61,2.283 2.171,2.138c0.506,-0.047 1.02,0.032 1.53,0.032l42.239,0c0.612,0 1.226,-0.077 1.836,-0.04c1.364,0.083 1.751,-0.648 1.733,-1.89c-0.041,-2.958 -0.068,-5.927 0.011,-8.884c0.039,-1.485 -0.552,-1.944 -1.978,-1.923c-4.183,0.063 -8.366,0.029 -12.549,0.014c-3.555,-0.014 -3.934,-0.364 -3.939,-3.793c-0.016,-10.203 -0.016,-20.406 0,-30.609c0.005,-3.227 0.303,-3.524 3.664,-3.95c21.636,-2.741 39.538,-12.45 53.361,-29.268c13.679,-16.644 19.761,-35.915 18.313,-57.43c-1.465,-21.768 -10.507,-39.966 -26.34,-54.891c-1.805,-1.702 -3.641,-2.495 -6.221,-2.475m342.254,-57.389c-4.184,0.042 -8.369,-0.096 -12.553,-0.073c-2.691,0.015 -2.694,-0.005 -2.74,2.651c-0.012,0.714 -0.003,1.406 -0.003,2.12c0,20.106 -0.029,40.201 0.026,60.307c0.01,3.697 -0.945,7.038 -2.776,10.185c-1.654,2.842 -3.722,5.374 -6.08,7.643c-3.383,3.253 -6.861,6.405 -10.307,9.591c-2.849,2.635 -5.68,5.282 -8.052,8.376c-2.307,3.01 -3.618,6.3 -3.466,10.194c0.155,3.974 0.034,7.959 0.034,11.939c0,0.613 0.025,1.227 -0.01,1.837c-0.121,2.098 -0.449,2.425 -2.56,2.551c-0.61,0.037 -1.224,-0.002 -1.836,0.016c-2.422,0.072 -2.448,0.077 -2.335,2.376c0.07,1.426 0.223,2.848 0.354,4.27c0.318,3.454 0.683,6.904 0.956,10.361c0.241,3.054 0.197,3.076 -2.748,3.082c-6.226,0.013 -12.452,0.004 -18.677,0.004c-5.971,0 -5.923,0.006 -5.264,-5.837c0.457,-4.054 0.782,-8.124 1.116,-12.191c0.162,-1.959 0.11,-1.964 -1.963,-2.066c-0.102,-0.005 -0.204,0.001 -0.306,-0.003c-3.471,-0.134 -3.507,-0.158 -3.521,-3.744c-0.015,-3.879 -0.179,-7.767 0.04,-11.633c0.279,-4.922 -1.457,-8.981 -4.639,-12.55c-1.289,-1.446 -2.593,-2.889 -4.004,-4.213c-3.647,-3.421 -7.38,-6.75 -11.033,-10.164c-2.688,-2.512 -5.18,-5.208 -7.27,-8.255c-2.493,-3.635 -3.805,-7.576 -3.752,-12.053c0.11,-9.184 0.033,-18.371 0.033,-27.556c0,-11.533 0.009,-23.066 -0.009,-34.599c-0.004,-2.685 -0.047,-2.723 -2.726,-2.729c-8.369,-0.019 -16.738,-0.02 -25.107,0.001c-2.579,0.006 -2.606,0.047 -2.612,2.807c-0.016,7.348 -0.013,14.696 -0.001,22.045c0.003,2.248 -0.159,4.472 -0.456,6.708c-0.765,5.762 -1.382,11.545 -2.073,17.317c-1.298,10.836 -2.604,21.672 -3.912,32.507c-1.541,12.758 -3.088,25.516 -4.632,38.273c-1.348,11.139 -2.693,22.277 -4.046,33.415c-1.069,8.804 -2.431,17.584 -3.165,26.417c-1.836,22.112 -16.783,40.39 -38.189,46.244c-0.787,0.215 -1.578,0.419 -2.377,0.579c-0.957,0.191 -1.337,0.734 -1.329,1.708c0.03,3.368 0.059,6.737 -0.013,10.103c-0.033,1.538 0.685,1.901 2.048,1.861c2.243,-0.064 4.491,-0.06 6.735,0.005c1.984,0.057 2.538,0.441 2.588,2.231c0.112,3.976 0.11,7.96 0.013,11.938c-0.044,1.765 -0.678,2.289 -2.531,2.446c-0.609,0.052 -1.224,0.086 -1.837,0.086l-34.599,0c-0.612,0 -1.228,-0.033 -1.836,-0.086c-1.888,-0.166 -2.413,-0.609 -2.452,-2.446c-0.082,-3.876 -0.082,-7.774 -0.007,-11.651c0.04,-2.07 0.475,-2.444 2.608,-2.511c2.039,-0.065 4.082,-0.003 6.123,-0.028c2.561,-0.03 2.59,-0.047 2.622,-2.497c0.034,-2.653 0.028,-5.308 0.003,-7.962c-0.026,-2.729 0.403,-2.641 -2.833,-3.641c-20.744,-6.41 -33.453,-20.225 -37.913,-41.541c-0.843,-4.028 -0.513,-8.137 -0.925,-12.189c-0.567,-5.581 -1.297,-11.145 -1.962,-16.715c-1.51,-12.66 -3.015,-25.32 -4.537,-37.978c-1.558,-12.962 -3.131,-25.922 -4.703,-38.883c-1.339,-11.036 -2.689,-22.071 -4.028,-33.107c-1.204,-9.922 -2.604,-19.822 -2.152,-29.873c0.183,-4.074 0.03,-8.163 0.029,-12.246c0,-0.612 -0.027,-1.225 -0.01,-1.836c0.029,-1.018 -0.445,-1.506 -1.465,-1.492c-0.816,0.01 -1.633,-0.016 -2.449,-0.016c-10.207,-0.002 -20.413,-0.001 -30.619,-0.001c-0.612,0 -1.229,0.049 -1.836,-0.005c-1.37,-0.122 -2.109,0.448 -2.261,1.834c-0.056,0.5 -0.283,0.978 -0.411,1.472c-4.167,16.087 -8.264,32.192 -12.566,48.243c-0.676,2.524 -0.204,3.936 1.667,5.741c24.559,23.704 33.134,52.351 24.854,85.417c-8.28,33.066 -36.344,57.615 -70.039,62.472c-2.411,0.348 -2.481,0.347 -2.488,2.513c-0.029,8.675 -0.03,17.35 0.004,26.025c0.009,2.303 0.083,2.35 2.474,2.372c4.286,0.039 8.573,-0.021 12.859,0.03c2.604,0.031 3.098,0.496 3.128,3.014c0.054,4.694 0.048,9.39 0.004,14.084c-0.025,2.702 -0.562,3.192 -3.228,3.297c-0.306,0.012 -0.612,0.003 -0.919,0.003c-16.329,0 -32.659,0.006 -48.989,-0.003c-3.865,-0.003 -4.118,-0.277 -4.125,-4.223c-0.007,-4.184 -0.017,-8.369 0.004,-12.553c0.016,-3.325 0.306,-3.609 3.733,-3.63c4.184,-0.025 8.369,-0.044 12.553,0.006c1.495,0.017 2.198,-0.404 2.187,-2.069c-0.061,-8.879 -0.056,-17.759 -0.003,-26.638c0.01,-1.62 -0.738,-2.052 -2.177,-2.237c-2.22,-0.286 -4.429,-0.716 -6.613,-1.217c-41.008,-9.395 -71.486,-48.71 -65.94,-93.992c2.581,-21.074 11.979,-38.805 27.733,-53.065c1.647,-1.49 1.841,-2.772 1.326,-4.727c-4.31,-16.366 -8.511,-32.761 -12.828,-49.125c-0.842,-3.194 0.007,-3.033 -4.073,-3.035c-13.472,-0.01 -26.944,-0.004 -40.416,-0.004c-1.838,0 -3.675,-0.01 -5.512,0.014c-0.385,0.005 -0.971,0.015 -1.112,0.242c-0.368,0.591 0.274,0.866 0.634,1.171c5.964,5.058 8.212,11.61 8.202,19.286c-0.061,44.601 -0.03,89.202 -0.03,133.803c0,1.123 0.039,2.247 -0.01,3.368c-0.056,1.294 0.094,2.389 1.464,3.043c0.93,0.443 1.567,1.304 2.079,2.198c2.569,4.482 -0.474,9.95 -5.753,10.153c-3.873,0.149 -7.755,0.034 -11.634,0.039c-3.629,0.004 -3.636,0.007 -2.664,3.356c7.7,26.535 15.405,53.069 23.097,79.606c0.396,1.365 0.953,2.696 1.011,4.148c0.109,2.712 -1.452,4.86 -3.958,5.436c-2.592,0.595 -4.971,-0.506 -6.076,-2.929c-0.461,-1.012 -0.729,-2.117 -1.041,-3.192c-8.049,-27.708 -16.08,-55.42 -24.152,-83.121c-1.083,-3.717 -0.388,-3.291 -4.556,-3.298c-11.023,-0.018 -22.046,-0.006 -33.068,-0.006c-13.779,-0.001 -27.557,0.012 -41.335,-0.011c-3.674,-0.007 -6.161,-1.696 -7.105,-4.667c-0.942,-2.963 -0.082,-5.776 2.738,-7.761c1.202,-0.846 1.545,-1.744 1.466,-3.05c-0.05,-0.813 -0.009,-1.632 -0.009,-2.449c0,-45.213 0.034,-90.426 -0.034,-135.639c-0.011,-7.179 2.339,-13.155 7.684,-17.944c0.228,-0.204 0.494,-0.377 0.681,-0.613c0.172,-0.217 0.363,-0.498 0.365,-0.752c0.003,-0.415 -0.417,-0.386 -0.698,-0.399c-0.713,-0.035 -1.428,-0.031 -2.142,-0.031c-7.45,-0.002 -15.001,-0.031 -22.451,0.022c-1.594,0.012 -3.385,-0.236 -4.385,-1.24l0,-1.225c0,-0.445 1.362,0.141 1.425,-0.859l633.862,0c1.035,3 0.631,3.441 -2.525,3.472" id="path26"/>
     </g>
     <g id="g28">
      <path fill="#ffffff" fill-rule="nonzero" d="m420.314606,457.861633c11.224,0 22.447,0 33.671,-0.001c0.816,0 1.633,0.011 2.448,-0.023c1.349,-0.057 2.037,-0.813 2.107,-2.132c0.043,-0.814 0.039,-1.631 0.04,-2.447c0.004,-4.898 -0.023,-9.795 0.018,-14.692c0.018,-2.182 0.079,-2.249 2.237,-2.258c7.754,-0.03 15.508,0.013 23.263,-0.029c1.46,-0.008 2.019,0.449 1.814,1.961c-0.479,3.536 -0.854,7.086 -1.279,10.63c-1.514,12.655 -3.023,25.311 -4.55,37.965c-1.528,12.654 -3.078,25.305 -4.611,37.958c-1.583,13.057 -3.151,26.117 -4.753,39.172c-0.12,0.981 0.003,2.796 -0.489,2.786c-1.31,-0.026 -1.142,-1.643 -1.5,-2.594c-9.436,-25.094 -36.544,-38.989 -62.353,-31.719c-16.812,4.735 -28.398,15.461 -35.02,31.592c-0.226,0.55 -0.309,1.472 -0.891,1.447c-0.731,-0.031 -0.416,-0.95 -0.511,-1.473c-0.218,-1.202 -0.346,-2.421 -0.493,-3.636c-1.305,-10.832 -2.603,-21.665 -3.91,-32.497c-1.55,-12.856 -3.105,-25.711 -4.661,-38.567c-1.336,-11.034 -2.681,-22.066 -4.011,-33.1c-0.72,-5.973 -1.395,-11.951 -2.144,-17.92c-0.182,-1.455 0.25,-2.016 1.772,-2.007c7.856,0.049 15.712,0.044 23.568,0.002c1.443,-0.008 2.003,0.523 1.976,1.963c-0.056,3.06 -0.014,6.122 -0.011,9.183c0.002,2.55 -0.054,5.103 0.027,7.651c0.071,2.218 0.566,2.655 2.74,2.774c0.712,0.039 1.428,0.011 2.142,0.011c11.121,0 22.243,0 33.364,0" id="path30"/>
     </g>
     <g id="g32">
      <path fill="#c6d9f2" fill-rule="nonzero" d="m62.542908,566.812134c-11.228,0 -22.455,0.007 -33.683,-0.005c-2.981,-0.003 -3.001,-0.031 -3.006,-3.065c-0.012,-7.145 -0.019,-14.29 0.005,-21.435c0.008,-2.512 0.05,-2.561 2.553,-2.572c6.838,-0.028 13.677,-0.003 20.516,-0.021c0.91,-0.002 1.835,-0.059 2.727,-0.23c0.769,-0.148 1.201,-0.739 1.236,-1.547c0.04,-0.937 -0.393,-1.634 -1.301,-1.809c-0.89,-0.171 -1.821,-0.174 -2.735,-0.176c-6.838,-0.014 -13.677,0.01 -20.516,-0.02c-2.407,-0.011 -2.438,-0.066 -2.479,-2.337c-0.04,-2.245 -0.038,-4.491 -0.001,-6.736c0.038,-2.283 0.066,-2.313 2.448,-2.344c2.756,-0.036 5.512,-0.009 8.268,-0.014c1.289,-0.002 2.531,-0.135 2.722,-1.772c0.149,-1.276 -0.714,-1.851 -2.815,-1.943c-0.612,-0.026 -1.225,-0.008 -1.837,-0.009c-2.144,-0.001 -4.288,0.035 -6.43,-0.013c-2.299,-0.053 -2.32,-0.088 -2.358,-2.479c-0.032,-2.041 -0.02,-4.082 -0.004,-6.124c0.023,-2.872 0.032,-2.901 2.821,-2.908c6.737,-0.018 13.473,-0.005 20.21,-0.01c0.815,-0.001 1.64,0.03 2.444,-0.079c1.062,-0.145 1.613,-0.846 1.552,-1.918c-0.053,-0.945 -0.636,-1.489 -1.561,-1.58c-0.81,-0.081 -1.629,-0.091 -2.444,-0.092c-6.839,-0.007 -13.677,0.013 -20.516,-0.016c-2.423,-0.01 -2.457,-0.063 -2.498,-2.335c-0.042,-2.347 0.049,-4.697 -0.028,-7.042c-0.05,-1.54 0.47,-2.224 2.096,-2.163c2.446,0.092 4.898,0.023 7.348,0.018c0.714,-0.001 1.43,0.014 2.142,-0.035c1.183,-0.082 1.945,-0.674 1.886,-1.929c-0.052,-1.088 -0.758,-1.615 -1.816,-1.667c-0.611,-0.03 -1.225,-0.024 -1.837,-0.024c-2.552,-0.004 -5.105,-0.062 -7.654,0.016c-1.543,0.047 -2.242,-0.469 -2.166,-2.092c0.091,-1.935 0.014,-3.878 0.019,-5.817c0.01,-3.973 -0.279,-3.705 3.574,-3.709c6.532,-0.005 13.064,0.001 19.597,-0.005c0.815,-0.001 1.639,0.018 2.443,-0.09c0.939,-0.125 1.404,-0.775 1.417,-1.705c0.014,-0.944 -0.5,-1.583 -1.393,-1.747c-0.793,-0.145 -1.625,-0.107 -2.44,-0.108c-6.839,-0.007 -13.678,0.009 -20.516,-0.012c-2.636,-0.009 -2.651,-0.044 -2.678,-2.75c-0.022,-2.245 0.064,-4.493 -0.024,-6.735c-0.064,-1.623 0.639,-2.141 2.174,-2.105c2.856,0.065 5.715,0.019 8.573,0.008c1.246,-0.005 2.58,0.048 2.733,-1.682c0.112,-1.272 -0.812,-1.893 -2.836,-1.981c-0.611,-0.026 -1.225,-0.006 -1.837,-0.007c-2.143,-0.001 -4.287,0.029 -6.43,-0.01c-2.291,-0.041 -2.305,-0.068 -2.352,-2.453c-0.029,-1.53 -0.024,-3.062 -0.003,-4.593c0.065,-4.72 -0.661,-4.31 4.178,-4.326c6.226,-0.022 12.453,-0.003 18.679,-0.009c0.815,-0.001 1.637,0.007 2.443,-0.093c1.011,-0.127 1.733,-0.668 1.741,-1.779c0.008,-1.091 -0.645,-1.7 -1.682,-1.822c-0.807,-0.096 -1.63,-0.078 -2.445,-0.079c-6.839,-0.006 -13.678,0.016 -20.516,-0.017c-2.329,-0.012 -2.379,-0.073 -2.39,-2.424c-0.028,-5.716 -0.107,-11.434 0.023,-17.147c0.196,-8.565 6.422,-15.792 14.824,-17.555c3.043,-0.638 6.1,-0.373 9.153,-0.416c2.882,-0.041 2.892,0.004 3.701,2.78c6.013,20.656 12.028,41.312 18.032,61.971c8.851,30.449 17.695,60.901 26.538,91.353c1.034,3.561 1.024,3.564 -2.825,3.571c-0.306,0.001 -0.612,0 -0.918,0c-10.616,0 -21.231,0 -31.846,0" id="path34"/>
     </g>
     <g id="g36">
      <path fill="#c6d9f2" fill-rule="nonzero" d="m127.970123,494.773956c0,22.555 0,45.109 0,67.664c0,0.816 -0.047,1.635 -0.003,2.449c0.08,1.476 -0.64,1.951 -2.042,1.937c-4.592,-0.045 -9.186,-0.063 -13.777,0.011c-1.525,0.025 -2.266,-0.574 -2.489,-2.031c-0.091,-0.599 -0.334,-1.175 -0.504,-1.762c-10.067,-34.658 -20.129,-69.316 -30.201,-103.972c-4.751,-16.349 -9.525,-32.692 -14.279,-49.04c-0.819,-2.817 -0.799,-2.89 1.437,-2.893c14.594,-0.02 29.189,-0.123 43.782,0.037c8.275,0.091 15.278,5.875 17.415,13.869c0.61,2.285 0.665,4.633 0.664,6.986c-0.006,22.248 -0.003,44.497 -0.003,66.745" id="path38"/>
     </g>
     <g id="g40">
      <path fill="#ffffff" fill-rule="nonzero" d="m242.390411,407.073242c20.61,0 41.221,0 61.831,0.001c0.919,0 1.837,0.016 2.755,0.023c0.984,0.008 1.214,0.506 0.948,1.388c-0.177,0.584 -0.276,1.192 -0.43,1.783c-2.725,10.455 -5.455,20.908 -8.18,31.362c-1.311,5.03 -2.605,10.064 -3.923,15.092c-0.682,2.602 -0.697,2.598 -2.996,0.995c-0.502,-0.35 -1.003,-0.702 -1.509,-1.046c-12.597,-8.561 -26.519,-13.475 -41.681,-14.531c-20.014,-1.393 -38.416,3.539 -55.031,14.89c-0.758,0.518 -1.511,1.044 -2.249,1.59c-0.837,0.618 -1.259,0.319 -1.468,-0.598c-0.112,-0.496 -0.28,-0.98 -0.408,-1.473c-2.686,-10.359 -5.37,-20.719 -8.055,-31.078c-1.432,-5.525 -2.84,-11.056 -4.317,-16.569c-0.351,-1.314 -0.115,-1.938 1.352,-1.834c0.812,0.057 1.632,0.005 2.448,0.005c20.304,0 40.609,0 60.913,0" id="path42"/>
     </g>
     <g id="g44">
      <path fill="#ffffff" fill-rule="nonzero" d="m569.730011,530.895233c-4.284,0 -8.569,-0.037 -12.853,0.021c-1.447,0.019 -1.979,-0.522 -1.956,-1.963c0.059,-3.774 -0.06,-7.55 0.035,-11.322c0.098,-3.939 -1.123,-7.416 -3.312,-10.611c-1.913,-2.792 -4.201,-5.259 -6.671,-7.555c-3.736,-3.471 -7.527,-6.883 -11.254,-10.365c-2.464,-2.302 -4.735,-4.79 -6.569,-7.637c-1.505,-2.338 -2.748,-4.809 -2.794,-7.66c-0.068,-4.181 -0.009,-8.365 -0.051,-12.546c-0.012,-1.172 0.325,-1.873 1.565,-2.209c2.228,-0.605 3.946,-2.072 5.555,-3.666c0.579,-0.574 1.149,-1.164 1.777,-1.682c3.065,-2.53 6.722,-2.575 9.783,-0.08c1.025,0.835 1.92,1.828 2.903,2.717c4.808,4.342 10.859,4.392 15.756,0.12c1.075,-0.938 2.033,-2.016 3.143,-2.906c2.986,-2.393 6.563,-2.368 9.535,0.04c0.949,0.769 1.792,1.666 2.689,2.498c5.011,4.649 11.128,4.727 16.203,0.196c0.912,-0.815 1.744,-1.723 2.68,-2.509c3.172,-2.66 6.86,-2.669 10.016,-0.035c0.782,0.653 1.498,1.384 2.229,2.095c1.48,1.439 3.084,2.746 5.118,3.22c1.573,0.367 1.81,1.295 1.783,2.669c-0.062,3.161 -0.14,6.33 0.011,9.485c0.206,4.299 -1.206,8.006 -3.686,11.396c-1.449,1.98 -3.031,3.854 -4.822,5.529c-3.5,3.274 -7.046,6.5 -10.569,9.75c-2.852,2.632 -5.605,5.354 -7.896,8.508c-2.472,3.4 -3.864,7.109 -3.706,11.398c0.135,3.667 -0.032,7.345 0.05,11.015c0.037,1.613 -0.593,2.137 -2.145,2.113c-4.182,-0.063 -8.365,-0.021 -12.547,-0.024" id="path46"/>
     </g>
     <g id="g48">
      <path fill="#00cd00" fill-rule="nonzero" d="m569.534637,407.074249c14.277,0 28.555,-0.008 42.832,0.007c2.551,0.003 2.634,0.046 2.638,2.174c0.026,14.787 0.023,29.574 0.003,44.361c-0.003,1.946 -0.485,2.202 -2.104,1.254c-1.604,-0.939 -2.771,-2.393 -4.139,-3.61c-4.763,-4.237 -10.7,-4.29 -15.522,-0.133c-0.926,0.798 -1.764,1.697 -2.68,2.507c-3.382,2.996 -7.293,2.985 -10.716,-0.031c-0.765,-0.673 -1.457,-1.427 -2.21,-2.114c-4.951,-4.519 -10.974,-4.595 -15.986,-0.194c-0.995,0.874 -1.89,1.865 -2.907,2.711c-2.986,2.487 -6.777,2.499 -9.788,0.024c-1.021,-0.84 -1.918,-1.828 -2.897,-2.721c-2.358,-2.15 -5.083,-3.297 -8.335,-3.196c-3.147,0.098 -5.656,1.476 -7.889,3.556c-1.264,1.176 -2.367,2.54 -3.945,3.358c-0.984,0.509 -1.545,0.359 -1.56,-0.852c-0.005,-0.408 -0.015,-0.816 -0.015,-1.223c0,-14.38 -0.008,-28.759 0.006,-43.138c0.003,-2.691 0.042,-2.693 2.688,-2.739c0.612,-0.01 1.224,-0.002 1.836,-0.002c13.563,0 27.127,0 40.69,0.001" id="path50"/>
     </g>
     <g id="g52">
      <path fill="#ffffff" fill-rule="nonzero" d="m419.750397,585.24646c14.787,0 29.574,0 44.362,0c0.815,0.001 1.633,0.042 2.447,0.004c1.248,-0.058 1.63,0.585 1.463,1.706c-0.285,1.914 -0.435,3.862 -0.895,5.733c-4.967,20.175 -17.708,32.483 -37.86,37.217c-3,0.705 -3.102,0.72 -3.123,3.802c-0.028,4.079 -0.01,8.158 -0.008,12.238c0.003,4.876 0.006,4.818 4.924,4.906c2.095,0.038 4.827,-0.977 6.12,0.567c1.226,1.464 0.355,4.119 0.361,6.247c0.005,2.087 -0.07,2.133 -2.315,2.152c-4.181,0.036 -8.363,0.012 -12.544,0.012c-6.221,0 -12.442,-0.034 -18.662,0.02c-1.54,0.013 -2.248,-0.457 -2.154,-2.089c0.1,-1.728 0.077,-3.468 0.01,-5.199c-0.053,-1.36 0.571,-1.778 1.837,-1.747c2.14,0.053 4.283,0.037 6.424,0.002c2.735,-0.045 3.207,-0.475 3.236,-3.212c0.048,-4.588 0.031,-9.178 0.009,-13.767c-0.016,-3.155 -0.113,-3.24 -3.346,-3.969c-20.169,-4.545 -35.367,-21.171 -37.961,-41.531c-0.385,-3.021 -0.349,-3.062 2.702,-3.091c0.408,-0.004 0.815,-0.001 1.223,-0.001l43.75,0z" id="path54"/>
     </g>
     <g id="g56">
      <path fill="#161d38" fill-rule="nonzero" d="m420.048798,581.440033c-14.886,0 -29.772,0.002 -44.658,-0.002c-3.713,-0.001 -3.736,-0.036 -3.397,-3.779c0.018,-0.203 0.034,-0.406 0.059,-0.609c3.298,-27.17 28.333,-46.176 55.426,-42.078c21.658,3.275 38.627,21.257 40.528,42.947c0.307,3.509 0.307,3.518 -3.3,3.519c-14.886,0.004 -29.772,0.002 -44.658,0.002" id="path58"/>
     </g>
     <g id="g60">
      <path fill="#49befe" fill-rule="nonzero" d="m243.028717,460.925262c-11.42,0 -22.84,0 -34.26,0c-3.569,0 -7.138,0.007 -10.707,-0.011c-0.475,-0.003 -1.157,0.227 -1.371,-0.302c-0.315,-0.778 0.572,-0.911 0.974,-1.288c0.219,-0.206 0.509,-0.335 0.765,-0.503c26.585,-17.425 62.239,-17.417 88.763,0.021c0.51,0.336 1.012,0.685 1.52,1.025c0.269,0.18 0.473,0.414 0.35,0.743c-0.127,0.341 -0.474,0.297 -0.761,0.302c-0.714,0.012 -1.428,0.012 -2.141,0.012c-14.378,0.001 -28.755,0.001 -43.132,0.001" id="path62"/>
     </g>
     <g id="g64">
      <path fill="#c6d9f2" fill-rule="nonzero" d="m62.495026,576.731262c-11.923,0 -23.847,0.004 -35.77,-0.007c-1.015,-0.001 -2.063,0.042 -3.036,-0.187c-1.506,-0.353 -2.392,-1.731 -2.237,-3.219c0.156,-1.491 0.999,-2.467 2.47,-2.71c0.996,-0.164 2.031,-0.115 3.048,-0.115c23.235,-0.005 46.471,-0.014 69.706,0.005c4.145,0.003 3.366,-0.502 4.587,3.62c0.759,2.559 0.708,2.576 -2.081,2.612c-0.611,0.007 -1.223,0.001 -1.834,0.001c-11.618,0 -23.235,0 -34.853,0" id="path66"/>
     </g>
     <g id="g68">
      <path fill="#c6d9f2" fill-rule="nonzero" d="m120.903625,570.502441c0,0.009 0,0.018 0,0.026c2.856,0 5.716,-0.092 8.567,0.035c1.717,0.076 2.905,1.451 2.939,2.971c0.033,1.485 -1.156,2.851 -2.816,3.123c-0.697,0.115 -1.424,0.07 -2.137,0.071c-3.367,0.006 -6.733,0.003 -10.1,0.003c-4.596,-0.001 -4.842,-0.228 -5.625,-4.726c-0.185,-1.063 0.146,-1.514 1.215,-1.508c2.652,0.015 5.305,0.005 7.957,0.005" id="path70"/>
     </g>
     <g id="g72">
      <path fill="#161d38" fill-rule="nonzero" d="m529.3237,963.777069c3.957,-1.476 6.664,-4.45 9.379,-7.524c12.499,-14.147 25.103,-28.201 37.604,-42.347c1.356,-1.534 2.644,-2.017 4.724,-1.824c13.305,1.23 26.629,2.254 39.943,3.383c13.213,1.12 26.42,2.303 39.632,3.424c13.213,1.121 26.429,2.197 39.644,3.298c3.252,0.272 6.509,0.515 9.751,0.879c1.215,0.136 2.216,-0.023 3.051,-0.934l0,-23.885c-0.799,-0.872 -0.436,-1.945 -0.445,-2.923c-0.137,-13.878 -0.216,-27.756 -0.365,-41.634c-0.077,-7.243 -0.251,-14.485 -0.407,-21.727c-0.073,-3.419 -0.47,-3.816 -3.748,-3.444c-9.221,1.049 -18.436,2.156 -27.654,3.238c-11.446,1.344 -22.891,2.69 -34.337,4.029c-11.244,1.315 -22.489,2.62 -33.733,3.935c-11.447,1.339 -22.893,2.686 -34.339,4.026c-1.924,0.225 -3.846,0.494 -5.778,0.635c-1.934,0.14 -1.944,0.08 -1.797,-1.733c1.362,-16.774 -6.521,-28.704 -20.317,-36.888c-11.201,-6.644 -22.643,-5.839 -33.407,1.61c-1.708,1.183 -3.005,1.487 -4.931,0.571c-3.338,-1.588 -7.074,-1.878 -10.64,-2.726c-1.284,-0.306 -2.541,-0.729 -3.803,-1.123c-1.188,-0.37 -1.082,-0.996 -0.319,-1.746c0.728,-0.715 1.444,-1.442 2.157,-2.172c1.021,-1.046 1.125,-2.151 0.096,-3.234c-1.125,-1.182 -2.276,-2.342 -3.463,-3.461c-1.063,-1.003 -2.18,-0.965 -3.256,0.029c-0.075,0.069 -0.145,0.145 -0.222,0.211c-1.075,0.926 -1.888,2.756 -3.156,2.699c-1.576,-0.071 -2.485,-1.939 -3.625,-3.077c-18.925,-18.889 -37.828,-37.8 -56.731,-56.71c-1.373,-1.375 -2.685,-2.872 -4.597,-3.464c-1.452,-0.449 -1.525,-1.218 -1.213,-2.528c1.298,-5.454 2.543,-10.922 3.701,-16.408c1.01,-4.786 2.141,-9.566 2.315,-14.483c0.157,-4.469 -2.246,-7.916 -6.213,-9.114c-6.106,-1.845 -11.907,2.677 -11.596,9.201c0.21,4.385 1.155,8.689 2.078,12.976c1.309,6.079 2.643,12.153 4.064,18.206c0.304,1.297 0.182,1.992 -1.108,2.655c-5.404,2.778 -6.688,10.482 -1.536,15.571c18.659,18.431 37.136,37.047 55.681,55.593c0.938,0.939 1.885,1.868 2.813,2.816c2.969,3.03 2.853,2.254 0.119,5.064c-2.33,2.394 -2.337,2.865 -0.023,5.228c0.071,0.073 0.147,0.141 0.219,0.213c3.647,3.681 3.647,3.681 7.376,0.309c1.397,-1.264 1.627,-1.244 2.262,0.443c0.721,1.914 1.11,3.92 1.466,5.93c0.769,4.341 1.804,8.609 4.296,12.33c0.777,1.161 0.439,2.055 -0.029,3.117c-1.866,4.235 -2.974,8.637 -3.267,13.289c-1.014,16.123 12.772,27.969 23.872,29.99c2.527,0.46 5.058,0.616 7.615,0.533c0.283,-0.009 0.615,-0.033 0.756,0.319c0.15,0.372 -0.158,0.552 -0.369,0.725c-0.869,0.71 -1.754,1.401 -2.641,2.089c-14.999,11.629 -29.984,23.277 -45.011,34.871c-3.594,2.773 -5.489,6.245 -5.044,10.824c0.554,5.694 5.106,9.918 10.82,10.115c0.306,0.011 0.612,0.003 0.918,0.006c2.219,0.02 2.219,0.02 2.377,2.254c0.506,7.16 6.529,11.828 13.589,10.546c2.181,-0.396 3.957,-1.546 5.668,-2.872c12.094,-9.381 24.192,-18.757 36.318,-28.097c0.81,-0.623 1.424,-1.666 2.663,-1.619c-0.277,1.033 -1.137,1.637 -1.793,2.378c-5.48,6.189 -10.96,12.377 -16.484,18.527c-2.224,2.476 -3.397,5.283 -3.219,8.635c0.23,4.357 2.36,7.481 6.112,9.595c0.867,0.488 1.994,0.475 2.638,1.382l4.899,0z" id="path74"/>
     </g>
     <g id="g76">
      <path fill="#c6d9f2" fill-rule="nonzero" d="m708.755157,875.710052c0.031,0 0.063,0 0.094,0c0,2.857 -0.036,5.714 0.007,8.57c0.163,10.814 0.362,21.626 0.521,32.44c0.035,2.379 -0.016,2.382 -2.352,2.262c-0.408,-0.021 -0.813,-0.07 -1.22,-0.105c-13.211,-1.142 -26.421,-2.301 -39.634,-3.42c-13.213,-1.12 -26.432,-2.18 -39.645,-3.303c-15.55,-1.322 -31.1,-2.65 -46.642,-4.064c-2.349,-0.214 -3.951,0.394 -5.556,2.217c-13.086,14.855 -26.281,29.614 -39.448,44.397c-0.949,1.067 -1.867,2.177 -2.924,3.129c-2.881,2.595 -7.193,2.55 -10.04,-0.021c-2.752,-2.485 -3.275,-6.604 -1.17,-9.739c0.622,-0.925 1.405,-1.747 2.15,-2.584c10.513,-11.818 21.033,-23.629 31.547,-35.446c0.678,-0.761 1.367,-1.52 1.969,-2.34c0.53,-0.723 0.556,-1.523 -0.069,-2.247c-0.612,-0.707 -1.418,-0.883 -2.207,-0.475c-0.805,0.417 -1.537,0.991 -2.259,1.55c-18.562,14.359 -37.118,28.727 -55.68,43.087c-0.805,0.623 -1.598,1.297 -2.492,1.766c-5.071,2.659 -11.071,-1.109 -10.978,-6.841c0.048,-2.945 1.683,-4.87 3.884,-6.571c15.34,-11.855 30.652,-23.745 45.97,-35.628c0.724,-0.562 1.463,-1.119 2.107,-1.767c0.626,-0.629 0.787,-1.403 0.259,-2.224c-0.609,-0.947 -1.515,-1.08 -2.404,-0.663c-0.814,0.383 -1.528,1 -2.25,1.559c-15.971,12.373 -31.936,24.753 -47.908,37.125c-0.885,0.687 -1.756,1.424 -2.733,1.957c-5.038,2.746 -11.071,-0.919 -11.062,-6.655c0.005,-3.084 1.732,-5.05 4.017,-6.817c18.646,-14.417 37.271,-28.862 55.873,-43.336c1.178,-0.917 3.194,-1.561 2.266,-3.749c-0.533,-1.258 -1.471,-1.2 -4.288,0.025c-3.986,1.734 -8.16,2.726 -12.5,2.457c-18.203,-1.13 -29.646,-20.176 -22.216,-36.806c0.605,-1.354 1.063,-1.466 2.143,-0.512c2.582,2.281 5.66,3.578 9.003,4.322c1.184,0.263 2.723,-0.296 3.5,0.654c0.792,0.969 -0.083,2.341 -0.178,3.538c-0.528,6.633 4.352,11.944 10.978,12.001c3.291,0.028 6.232,-1.05 8.963,-2.703c7.897,-4.781 13.785,-11.418 17.729,-19.748c1.229,-2.594 1.967,-5.358 1.924,-8.277c-0.105,-7.018 -6.06,-11.938 -12.986,-10.748c-3.601,0.618 -6.764,2.214 -9.727,4.263c-1.517,1.049 -3.048,2.068 -4.836,2.585c-3.619,1.046 -7.213,-0.776 -8.3,-4.324c-0.796,-2.598 -0.37,-5.052 1.477,-7.157c2.707,-3.083 5.674,-5.872 9.208,-7.997c6.721,-4.042 13.869,-5.327 21.437,-2.942c10.007,3.154 17.001,9.851 21.627,19.1c3.21,6.419 4.282,13.128 2.123,20.167c-0.69,2.252 -0.017,3.133 2.273,3.021c2.135,-0.105 4.261,-0.424 6.388,-0.67c11.245,-1.305 22.489,-2.609 33.732,-3.926c11.345,-1.328 22.687,-2.674 34.031,-4.007c11.546,-1.357 23.092,-2.712 34.639,-4.062c9.42,-1.102 18.838,-2.222 28.263,-3.28c2.887,-0.324 2.903,-0.243 2.949,2.565c0.219,13.466 0.436,26.931 0.653,40.397" id="path78"/>
     </g>
     <g id="g80">
      <path fill="#49befe" fill-rule="nonzero" d="m421.377838,736.403168c1.71,-0.118 3.075,1.28 4.46,2.665c19.456,19.462 38.915,38.921 58.374,58.38c0.432,0.433 0.847,0.882 1.288,1.306c0.653,0.629 0.583,1.211 -0.036,1.825c-1.952,1.94 -3.915,3.869 -5.823,5.852c-0.85,0.883 -1.535,0.781 -2.279,-0.075c-0.333,-0.383 -0.718,-0.722 -1.079,-1.082c-19.387,-19.387 -38.776,-38.772 -58.159,-58.162c-0.648,-0.648 -1.339,-1.279 -1.856,-2.024c-1.269,-1.827 -1.383,-3.809 -0.361,-5.777c1.034,-1.991 2.75,-2.929 5.471,-2.908" id="path82"/>
     </g>
     <g id="g84">
      <path fill="#ffffff" fill-rule="nonzero" d="m510.082794,852.223419c0.24,-2.836 0.514,-5.061 3.993,-6.303c6.696,-2.39 10.736,-7.66 11.955,-14.663c0.422,-2.428 1.531,-3.534 3.554,-4.306c1.238,-0.472 2.458,-0.947 3.784,-1.139c5.307,-0.772 9.196,2.978 8.55,8.3c-0.247,2.036 -0.866,3.979 -1.775,5.814c-3.514,7.098 -8.602,12.807 -15.252,17.107c-1.805,1.168 -3.762,2.055 -5.878,2.476c-4.977,0.989 -8.985,-2.337 -8.931,-7.286" id="path86"/>
     </g>
     <g id="g88">
      <path fill="#161d38" fill-rule="nonzero" d="m559.257111,717.971832c-0.231,1.005 -0.815,1.612 -1.876,1.529c-1.049,-0.082 -1.666,-0.746 -1.586,-1.775c0.079,-1.026 0.784,-1.604 1.837,-1.525c1.046,0.08 1.567,0.736 1.625,1.771m3.722,-0.394c-0.13,-3.011 -2.64,-5.334 -5.653,-5.232c-3.001,0.103 -5.36,2.59 -5.308,5.599c0.054,3.15 2.621,5.498 5.826,5.328c3.042,-0.161 5.268,-2.63 5.135,-5.695" id="path90"/>
     </g>
     <g id="g92">
      <path fill="#161d38" fill-rule="nonzero" d="m370.164398,804.706635c-1.118,-0.112 -1.76,-0.743 -1.709,-1.75c0.051,-0.994 0.723,-1.646 1.795,-1.59c1.05,0.054 1.682,0.69 1.635,1.732c-0.046,1.042 -0.734,1.57 -1.721,1.608m0.167,3.839c3.012,-0.093 5.34,-2.55 5.301,-5.596c-0.04,-3.162 -2.64,-5.608 -5.765,-5.423c-2.985,0.176 -5.329,2.762 -5.198,5.733c0.132,2.973 2.707,5.377 5.662,5.286" id="path94"/>
     </g>
     <g id="g96">
      <path fill="#161d38" fill-rule="nonzero" d="m401.456146,884.131073c1.006,0.187 1.676,0.757 1.602,1.821c-0.072,1.047 -0.793,1.67 -1.822,1.598c-1.01,-0.07 -1.707,-0.751 -1.626,-1.802c0.079,-1.016 0.77,-1.585 1.846,-1.617m5.358,1.741c0.005,-3.066 -2.321,-5.423 -5.393,-5.465c-3.2,-0.044 -5.647,2.412 -5.573,5.595c0.069,2.986 2.581,5.42 5.553,5.379c2.996,-0.041 5.408,-2.496 5.413,-5.509" id="path98"/>
     </g>
     <g id="g100">
      <path fill="#161d38" fill-rule="nonzero" d="m61.057129,686.798248c0.983,0.153 1.628,0.721 1.551,1.779c-0.077,1.045 -0.769,1.598 -1.816,1.542c-1.07,-0.057 -1.659,-0.762 -1.6,-1.762c0.06,-1.018 0.767,-1.561 1.865,-1.559m5.301,1.779c0.051,-3.049 -2.244,-5.498 -5.263,-5.617c-3.07,-0.121 -5.728,2.459 -5.708,5.537c0.019,2.979 2.469,5.407 5.482,5.433c3.068,0.026 5.437,-2.284 5.489,-5.353" id="path102"/>
     </g>
     <g id="g104">
      <path fill="#161d38" fill-rule="nonzero" d="m155.831726,714.254669c-0.153,1.07 -0.747,1.659 -1.844,1.571c-1.117,-0.09 -1.606,-0.81 -1.504,-1.869c0.09,-0.94 0.701,-1.446 1.648,-1.429c1.103,0.019 1.634,0.656 1.7,1.727m-1.742,-5.581c-2.948,0.02 -5.478,2.525 -5.508,5.455c-0.032,3.068 2.579,5.565 5.73,5.478c3.085,-0.086 5.334,-2.45 5.275,-5.548c-0.058,-3.028 -2.486,-5.406 -5.497,-5.385" id="path106"/>
     </g>
     <g id="g108">
      <path fill="#161d38" fill-rule="nonzero" d="m592.709503,762.069672c0.06,-1.988 -1.551,-3.765 -3.544,-3.911c-2.084,-0.152 -3.971,1.589 -4.028,3.717c-0.056,2.129 1.727,3.953 3.834,3.922c1.98,-0.03 3.678,-1.723 3.738,-3.728" id="path110"/>
     </g>
     <g id="g112">
      <path fill="#161d38" fill-rule="nonzero" d="m184.287506,742.216827c2.061,-0.013 3.71,-1.591 3.782,-3.618c0.075,-2.124 -1.674,-3.896 -3.835,-3.884c-2.025,0.01 -3.721,1.634 -3.795,3.633c-0.077,2.112 1.684,3.882 3.848,3.869" id="path114"/>
     </g>
     <g id="g116">
      <path fill="#161d38" fill-rule="nonzero" d="m556.98233,639.272339c-2.065,-0.049 -3.698,1.464 -3.82,3.536c-0.13,2.217 1.456,3.981 3.632,4.039c2.047,0.055 3.709,-1.487 3.825,-3.548c0.125,-2.212 -1.468,-3.976 -3.637,-4.027" id="path118"/>
     </g>
     <g id="g120">
      <path fill="#161d38" fill-rule="nonzero" d="m110.734009,773.011871c0.024,-1.986 -1.619,-3.737 -3.611,-3.846c-2.109,-0.116 -3.948,1.625 -3.968,3.758c-0.021,2.129 1.794,3.94 3.883,3.875c1.955,-0.062 3.672,-1.82 3.696,-3.787" id="path122"/>
     </g>
     <g id="g124">
      <path fill="#161d38" fill-rule="nonzero" d="m629.165009,627.158356c0.038,-2.176 -1.659,-3.884 -3.82,-3.844c-2.053,0.037 -3.608,1.609 -3.648,3.687c-0.043,2.23 1.592,3.887 3.79,3.841c2.045,-0.042 3.643,-1.642 3.678,-3.684" id="path126"/>
     </g>
     <g id="g128">
      <path fill="#161d38" fill-rule="nonzero" d="m483.742706,714.995148c1.644,0.045 3.131,-1.336 3.223,-2.992c0.098,-1.786 -1.413,-3.348 -3.204,-3.311c-1.694,0.036 -3.075,1.447 -3.073,3.14c0.002,1.692 1.378,3.117 3.054,3.163" id="path130"/>
     </g>
     <g id="g132">
      <path fill="#161d38" fill-rule="nonzero" d="m402.622711,832.800568c1.803,0.016 3.071,-1.191 3.112,-2.961c0.041,-1.763 -1.187,-3.116 -2.911,-3.208c-1.824,-0.097 -3.318,1.336 -3.289,3.154c0.028,1.743 1.315,2.999 3.088,3.015" id="path134"/>
     </g>
     <g id="g136">
      <path fill="#161d38" fill-rule="nonzero" d="m351.115143,699.654144c-1.801,-0.045 -3.106,1.148 -3.179,2.905c-0.077,1.876 1.309,3.332 3.138,3.296c1.68,-0.033 3.037,-1.414 3.053,-3.105c0.015,-1.744 -1.258,-3.053 -3.012,-3.096" id="path138"/>
     </g>
     <g id="g140">
      <path fill="#ffffff" fill-rule="nonzero" d="m436.945343,561.02005c-0.185,1.026 -0.808,1.669 -1.836,1.607c-1.034,-0.063 -1.675,-0.798 -1.599,-1.828c0.074,-1.004 0.743,-1.69 1.811,-1.615c1.052,0.073 1.558,0.791 1.624,1.836m-1.759,-5.585c-3.024,0.01 -5.458,2.416 -5.474,5.414c-0.017,3.142 2.538,5.647 5.665,5.553c3.024,-0.091 5.314,-2.52 5.269,-5.591c-0.044,-3.084 -2.382,-5.385 -5.46,-5.376" id="path142"/>
     </g>
     <g id="g144">
      <path fill="#ffffff" fill-rule="nonzero" d="m393.993744,563.913239c-1.041,-0.163 -1.691,-0.76 -1.64,-1.806c0.051,-1.05 0.777,-1.678 1.805,-1.619c1.009,0.058 1.703,0.709 1.637,1.784c-0.064,1.049 -0.753,1.583 -1.802,1.641m5.54,-1.663c0.025,-3.03 -2.323,-5.506 -5.309,-5.599c-3.067,-0.096 -5.665,2.494 -5.627,5.61c0.036,3.031 2.428,5.373 5.484,5.369c3.093,-0.003 5.427,-2.307 5.452,-5.38" id="path146"/>
     </g>
     <g id="g148">
      <path fill="#ffffff" fill-rule="nonzero" d="m418.006439,574.26355c2.01,-0.005 3.719,-1.649 3.796,-3.652c0.08,-2.095 -1.714,-3.925 -3.839,-3.915c-2.003,0.01 -3.712,1.655 -3.792,3.65c-0.084,2.11 1.691,3.922 3.835,3.917" id="path150"/>
     </g>
     <g id="g152">
      <path fill="#ffffff" fill-rule="nonzero" d="m413.697113,546.696259c-1.758,0.026 -3.051,1.31 -3.071,3.049c-0.02,1.829 1.463,3.24 3.303,3.14c1.719,-0.094 2.942,-1.457 2.887,-3.22c-0.056,-1.784 -1.328,-2.995 -3.119,-2.969" id="path154"/>
     </g>
     <g id="g156">
      <path fill="#e8384a" fill-rule="nonzero" d="m434.079498,485.589844c-0.003,-8.07 -6.334,-14.323 -14.051,-14.132c-7.777,0.193 -13.803,6.666 -13.458,14.468c0.127,2.872 0.702,5.666 1.615,8.383c2.585,7.691 6.424,14.754 10.905,21.482c1.177,1.768 1.299,1.77 2.456,0.019c4.685,-7.085 8.755,-14.479 11.255,-22.653c0.78,-2.553 1.215,-5.155 1.278,-7.567" id="path158"/>
     </g>
    </g>
   </g>
  </g>
 </g>
</svg>