<?xml version="1.0" standalone="no"?>
<!DOCTYPE svg PUBLIC "-//W3C//DTD SVG 20010904//EN"
 "http://www.w3.org/TR/2001/REC-SVG-20010904/DTD/svg10.dtd">
<svg version="1.0" xmlns="http://www.w3.org/2000/svg"
 width="64.000000pt" height="64.000000pt" viewBox="0 0 64.000000 64.000000"
 preserveAspectRatio="xMidYMid meet">

<g transform="translate(0.000000,64.000000) scale(0.100000,-0.100000)"
fill="#000000" stroke="none">
<path d="M260 605 l-34 -35 38 -39 c21 -21 51 -42 67 -45 21 -4 29 -11 29 -27
0 -13 8 -31 17 -41 16 -18 18 -17 67 29 l51 48 -45 -48 c-50 -53 -48 -75 8
-89 38 -10 51 -42 26 -69 -9 -10 -22 -19 -29 -19 -18 0 -45 34 -45 57 0 30
-26 49 -45 33 -33 -27 -18 -63 58 -138 l72 -72 73 73 c51 51 72 80 72 97 0 19
-36 62 -148 173 -166 166 -176 170 -232 112z"/>
<path d="M177 522 l-27 -28 73 -72 c40 -40 76 -72 80 -72 13 0 7 58 -8 70 -8
7 -15 22 -15 34 0 12 -17 39 -38 59 l-38 37 -27 -28z"/>
<path d="M67 412 c-87 -88 -87 -97 3 -187 l70 -69 75 74 c41 41 75 83 75 93 0
20 -126 157 -144 157 -7 0 -42 -30 -79 -68z"/>
<path d="M340 380 c0 -13 5 -20 13 -17 6 2 12 10 12 17 0 7 -6 15 -12 18 -8 2
-13 -5 -13 -18z"/>
</g>
</svg>
