<!-- Generator: Adobe Illustrator 22.0.1, SVG Export Plug-In  -->
<svg version="1.1"
	 xmlns="http://www.w3.org/2000/svg" xmlns:xlink="http://www.w3.org/1999/xlink" xmlns:a="http://ns.adobe.com/AdobeSVGViewerExtensions/3.0/"
	 x="0px" y="0px" width="412.902px" height="200.699px" viewBox="0 0 412.902 200.699"
	 style="enable-background:new 0 0 412.902 200.699;" xml:space="preserve">
<style type="text/css">
	.st0{fill:#6D6E71;}
	.st1{fill:#808285;}
	.st2{fill:#414042;}
	.st3{fill:#FDBF22;}
	.st4{fill:#333333;}
	.st5{fill:#D4A01D;}
	.st6{fill:#545454;}
	.st7{fill:#BBE6EB;}
	.st8{fill:#CBCBCB;}
	.st9{fill:#BBBBBB;}
	.st10{fill:#CE9006;}
	.st11{fill:#BD8405;}
	.st12{fill:#E1AA1E;}
	.st13{fill:#283039;}
	.st14{fill:#DCA61F;}
	.st15{fill:#2C6471;}
	.st16{fill:#F1942E;}
	.st17{fill:#AA6B21;}
	.st18{fill:#367480;}
	.st19{fill:#696965;}
	.st20{fill:#3E3E3C;}
	.st21{fill:#8F8F8A;}
	.st22{fill:#E9B020;}
	.st23{fill:#D1D3D4;}
	.st24{fill:#F15A29;}
	.st25{fill:#334A5F;}
	.st26{fill:#FFFFFF;}
	.st27{fill:#2C3B4E;}
	.st28{fill:#E6E7E8;}
	.st29{fill:#939598;}
	.st30{font-family:'Raleway-Light';}
	.st31{font-size:21.4521px;}
	.st32{letter-spacing:1;}
	.st33{font-size:12px;}
</style>
<defs>
</defs>
<g>
	<path class="st0" d="M66.273,179.625c1.029,0,1.884-0.192,2.563-0.579c0.679-0.386,1.215-0.894,1.608-1.522
		c0.394-0.63,0.672-1.345,0.837-2.146c0.164-0.801,0.246-1.609,0.246-2.424v-7.659h1.095v7.659c0,1.016-0.111,1.987-0.333,2.917
		s-0.583,1.748-1.083,2.456c-0.501,0.708-1.151,1.27-1.952,1.685s-1.788,0.622-2.961,0.622c-1.215,0-2.23-0.218-3.046-0.654
		c-0.815-0.437-1.47-1.016-1.963-1.737c-0.493-0.723-0.844-1.541-1.051-2.457c-0.208-0.915-0.312-1.858-0.312-2.831v-7.659h1.095
		v7.659c0,0.844,0.082,1.666,0.246,2.467s0.451,1.513,0.858,2.135s0.947,1.122,1.619,1.501
		C64.414,179.436,65.257,179.625,66.273,179.625z"/>
	<path class="st0" d="M78.542,167.355v13.172h-1.094v-15.231h0.837l10.683,13.408v-13.408h1.094v15.231h-1.008L78.542,167.355z"/>
	<path class="st0" d="M95.104,180.526v-15.231h5.063c1.201,0,2.256,0.201,3.164,0.602s1.663,0.943,2.264,1.63
		s1.051,1.491,1.352,2.413c0.3,0.923,0.45,1.906,0.45,2.95c0,1.158-0.168,2.206-0.504,3.143c-0.337,0.937-0.819,1.737-1.448,2.402
		c-0.63,0.665-1.391,1.18-2.284,1.545c-0.895,0.364-1.892,0.547-2.993,0.547H95.104z M106.302,172.89
		c0-0.958-0.137-1.842-0.408-2.649s-0.668-1.505-1.19-2.092c-0.522-0.586-1.162-1.044-1.92-1.373s-1.63-0.493-2.617-0.493h-3.969
		v13.258h3.969c1.001,0,1.884-0.168,2.649-0.505c0.765-0.336,1.405-0.804,1.92-1.405c0.515-0.601,0.904-1.305,1.169-2.112
		S106.302,173.833,106.302,172.89z"/>
	<path class="st0" d="M121.619,179.54v0.986h-10.146v-15.231h9.954v0.987h-8.86v5.985h7.744v0.943h-7.744v6.329H121.619z"/>
	<path class="st0" d="M125.673,180.526v-15.231h6.328c0.644,0,1.237,0.137,1.78,0.408c0.544,0.271,1.012,0.633,1.405,1.083
		s0.701,0.958,0.923,1.523s0.332,1.134,0.332,1.705c0,0.558-0.086,1.098-0.257,1.62c-0.172,0.521-0.415,0.99-0.729,1.405
		c-0.314,0.414-0.694,0.758-1.137,1.029c-0.443,0.271-0.931,0.45-1.459,0.536l3.797,5.921h-1.266l-3.689-5.749h-4.935v5.749H125.673
		z M126.767,173.769h5.342c0.486,0,0.93-0.106,1.33-0.321s0.743-0.497,1.029-0.848c0.286-0.35,0.505-0.751,0.654-1.201
		c0.15-0.45,0.226-0.912,0.226-1.384c0-0.485-0.09-0.954-0.269-1.405c-0.179-0.45-0.422-0.847-0.729-1.19
		c-0.309-0.343-0.665-0.618-1.073-0.826c-0.407-0.207-0.847-0.311-1.319-0.311h-5.191V173.769z"/>
	<path class="st0" d="M146.203,172.804c0-0.915,0.16-1.827,0.482-2.735c0.321-0.908,0.79-1.72,1.405-2.435
		c0.614-0.715,1.369-1.298,2.263-1.748c0.894-0.451,1.913-0.676,3.057-0.676c1.359,0,2.518,0.311,3.476,0.933
		s1.673,1.42,2.146,2.392l-0.901,0.516c-0.271-0.529-0.59-0.973-0.954-1.33c-0.365-0.357-0.759-0.647-1.181-0.869
		s-0.861-0.383-1.319-0.482c-0.457-0.1-0.908-0.15-1.351-0.15c-0.973,0-1.831,0.197-2.574,0.59
		c-0.744,0.394-1.373,0.905-1.889,1.534c-0.515,0.629-0.904,1.341-1.169,2.134c-0.265,0.794-0.396,1.592-0.396,2.393
		c0,0.9,0.157,1.759,0.472,2.574s0.743,1.533,1.287,2.156c0.544,0.622,1.188,1.119,1.931,1.49c0.743,0.372,1.545,0.558,2.402,0.558
		c0.458,0,0.93-0.057,1.416-0.171s0.951-0.293,1.395-0.537c0.443-0.242,0.858-0.554,1.244-0.933
		c0.387-0.379,0.708-0.826,0.966-1.341l0.943,0.45c-0.257,0.572-0.607,1.08-1.051,1.523s-0.937,0.815-1.48,1.115
		c-0.544,0.301-1.119,0.525-1.727,0.676c-0.608,0.15-1.205,0.226-1.791,0.226c-1.045,0-1.999-0.229-2.864-0.687
		s-1.612-1.055-2.242-1.791c-0.629-0.736-1.119-1.573-1.469-2.511C146.377,174.73,146.203,173.776,146.203,172.804z"/>
	<path class="st0" d="M169.049,180.634c-1.059,0-2.024-0.222-2.896-0.665s-1.623-1.022-2.252-1.737
		c-0.63-0.716-1.116-1.538-1.459-2.468c-0.344-0.929-0.515-1.88-0.515-2.853c0-1.016,0.182-1.988,0.547-2.918
		c0.364-0.93,0.865-1.752,1.501-2.467c0.637-0.715,1.391-1.283,2.264-1.705c0.872-0.422,1.816-0.633,2.832-0.633
		c1.058,0,2.026,0.225,2.906,0.676c0.88,0.45,1.631,1.04,2.253,1.77s1.104,1.555,1.447,2.478c0.344,0.923,0.516,1.855,0.516,2.8
		c0,1.029-0.183,2.009-0.548,2.938c-0.364,0.93-0.865,1.749-1.501,2.456c-0.637,0.708-1.392,1.273-2.264,1.695
		S170.064,180.634,169.049,180.634z M163.021,172.911c0,0.872,0.146,1.713,0.439,2.521s0.708,1.523,1.244,2.146
		s1.177,1.119,1.92,1.49c0.744,0.372,1.559,0.558,2.446,0.558c0.915,0,1.74-0.192,2.478-0.579c0.736-0.386,1.365-0.897,1.888-1.533
		c0.521-0.637,0.926-1.355,1.212-2.156s0.429-1.616,0.429-2.445c0-0.872-0.149-1.713-0.45-2.521
		c-0.301-0.809-0.719-1.523-1.255-2.146s-1.169-1.119-1.898-1.491c-0.729-0.371-1.53-0.558-2.402-0.558
		c-0.916,0-1.745,0.193-2.489,0.579c-0.743,0.387-1.38,0.897-1.909,1.534s-0.937,1.355-1.223,2.156S163.021,172.082,163.021,172.911
		z"/>
	<path class="st0" d="M181.297,167.355v13.172h-1.094v-15.231h0.837l10.682,13.408v-13.408h1.094v15.231h-1.008L181.297,167.355z"/>
	<path class="st0" d="M206.718,167.827c-0.986-1.102-2.381-1.652-4.183-1.652c-1.488,0-2.571,0.282-3.25,0.848
		c-0.68,0.565-1.02,1.326-1.02,2.284c0,0.486,0.086,0.891,0.258,1.212c0.172,0.322,0.439,0.598,0.805,0.826
		c0.364,0.229,0.825,0.422,1.384,0.579c0.558,0.158,1.229,0.322,2.016,0.493c0.815,0.172,1.556,0.362,2.221,0.569
		s1.229,0.468,1.694,0.782c0.465,0.315,0.822,0.701,1.073,1.159c0.25,0.457,0.375,1.022,0.375,1.694
		c0,0.673-0.132,1.259-0.396,1.759c-0.265,0.501-0.637,0.919-1.116,1.255c-0.479,0.337-1.051,0.59-1.716,0.762
		s-1.405,0.258-2.22,0.258c-2.375,0-4.384-0.758-6.028-2.274l0.579-0.879c0.644,0.672,1.43,1.205,2.359,1.598
		c0.93,0.394,1.974,0.59,3.132,0.59c1.33,0,2.371-0.243,3.122-0.729c0.751-0.485,1.126-1.223,1.126-2.209
		c0-0.501-0.101-0.926-0.301-1.276s-0.497-0.654-0.89-0.912c-0.394-0.257-0.891-0.479-1.491-0.665
		c-0.601-0.186-1.302-0.364-2.103-0.536c-0.814-0.172-1.533-0.354-2.155-0.547s-1.145-0.437-1.566-0.729s-0.74-0.646-0.954-1.062
		c-0.215-0.415-0.322-0.937-0.322-1.566c0-0.687,0.132-1.294,0.396-1.823s0.633-0.977,1.105-1.341
		c0.472-0.364,1.036-0.64,1.694-0.826c0.658-0.186,1.387-0.278,2.188-0.278c0.986,0,1.866,0.146,2.639,0.439
		c0.771,0.293,1.473,0.74,2.102,1.341L206.718,167.827z"/>
	<path class="st0" d="M222.442,166.282h-5.578v14.244h-1.094v-14.244h-5.578v-0.987h12.25V166.282z"/>
	<path class="st0" d="M225.874,180.526v-15.231h6.328c0.644,0,1.237,0.137,1.78,0.408c0.544,0.271,1.012,0.633,1.405,1.083
		s0.701,0.958,0.923,1.523s0.332,1.134,0.332,1.705c0,0.558-0.086,1.098-0.257,1.62c-0.172,0.521-0.415,0.99-0.729,1.405
		c-0.314,0.414-0.694,0.758-1.137,1.029c-0.443,0.271-0.931,0.45-1.459,0.536l3.797,5.921h-1.266l-3.689-5.749h-4.935v5.749H225.874
		z M226.968,173.769h5.342c0.486,0,0.93-0.106,1.33-0.321s0.743-0.497,1.029-0.848c0.286-0.35,0.505-0.751,0.654-1.201
		c0.15-0.45,0.226-0.912,0.226-1.384c0-0.485-0.09-0.954-0.269-1.405c-0.179-0.45-0.422-0.847-0.729-1.19
		c-0.309-0.343-0.665-0.618-1.073-0.826c-0.407-0.207-0.847-0.311-1.319-0.311h-5.191V173.769z"/>
	<path class="st0" d="M246.983,179.625c1.029,0,1.884-0.192,2.563-0.579c0.679-0.386,1.215-0.894,1.608-1.522
		c0.394-0.63,0.672-1.345,0.837-2.146c0.164-0.801,0.246-1.609,0.246-2.424v-7.659h1.095v7.659c0,1.016-0.111,1.987-0.333,2.917
		s-0.583,1.748-1.083,2.456c-0.501,0.708-1.151,1.27-1.952,1.685s-1.788,0.622-2.961,0.622c-1.215,0-2.23-0.218-3.046-0.654
		s-1.47-1.016-1.963-1.737c-0.493-0.723-0.844-1.541-1.051-2.457c-0.208-0.915-0.312-1.858-0.312-2.831v-7.659h1.095v7.659
		c0,0.844,0.082,1.666,0.246,2.467s0.451,1.513,0.858,2.135s0.947,1.122,1.619,1.501
		C245.124,179.436,245.968,179.625,246.983,179.625z"/>
	<path class="st0" d="M257.108,172.804c0-0.915,0.16-1.827,0.482-2.735c0.321-0.908,0.79-1.72,1.405-2.435
		c0.614-0.715,1.369-1.298,2.263-1.748c0.894-0.451,1.913-0.676,3.057-0.676c1.359,0,2.518,0.311,3.476,0.933
		s1.673,1.42,2.146,2.392l-0.901,0.516c-0.271-0.529-0.59-0.973-0.954-1.33c-0.365-0.357-0.759-0.647-1.181-0.869
		s-0.861-0.383-1.319-0.482c-0.457-0.1-0.908-0.15-1.351-0.15c-0.973,0-1.831,0.197-2.574,0.59
		c-0.744,0.394-1.373,0.905-1.889,1.534c-0.515,0.629-0.904,1.341-1.169,2.134c-0.265,0.794-0.396,1.592-0.396,2.393
		c0,0.9,0.157,1.759,0.472,2.574s0.743,1.533,1.287,2.156c0.544,0.622,1.188,1.119,1.931,1.49c0.743,0.372,1.545,0.558,2.402,0.558
		c0.458,0,0.93-0.057,1.416-0.171s0.951-0.293,1.395-0.537c0.443-0.242,0.858-0.554,1.244-0.933
		c0.387-0.379,0.708-0.826,0.966-1.341l0.943,0.45c-0.257,0.572-0.607,1.08-1.051,1.523s-0.937,0.815-1.48,1.115
		c-0.544,0.301-1.119,0.525-1.727,0.676c-0.608,0.15-1.205,0.226-1.791,0.226c-1.045,0-1.999-0.229-2.864-0.687
		s-1.612-1.055-2.242-1.791c-0.629-0.736-1.119-1.573-1.469-2.511C257.283,174.73,257.108,173.776,257.108,172.804z"/>
	<path class="st0" d="M284.524,166.282h-5.578v14.244h-1.094v-14.244h-5.578v-0.987h12.25V166.282z"/>
	<path class="st0" d="M287.956,180.526v-15.231h1.094v15.231H287.956z"/>
	<path class="st0" d="M300.184,180.634c-1.059,0-2.024-0.222-2.896-0.665s-1.623-1.022-2.252-1.737
		c-0.63-0.716-1.116-1.538-1.459-2.468c-0.344-0.929-0.515-1.88-0.515-2.853c0-1.016,0.182-1.988,0.547-2.918
		c0.364-0.93,0.865-1.752,1.501-2.467c0.637-0.715,1.391-1.283,2.264-1.705c0.872-0.422,1.816-0.633,2.832-0.633
		c1.058,0,2.026,0.225,2.906,0.676c0.88,0.45,1.631,1.04,2.253,1.77s1.104,1.555,1.447,2.478c0.344,0.923,0.516,1.855,0.516,2.8
		c0,1.029-0.183,2.009-0.548,2.938c-0.364,0.93-0.865,1.749-1.501,2.456c-0.637,0.708-1.392,1.273-2.264,1.695
		S301.198,180.634,300.184,180.634z M294.155,172.911c0,0.872,0.146,1.713,0.439,2.521s0.708,1.523,1.244,2.146
		s1.177,1.119,1.92,1.49c0.744,0.372,1.559,0.558,2.446,0.558c0.915,0,1.74-0.192,2.478-0.579c0.736-0.386,1.365-0.897,1.888-1.533
		c0.521-0.637,0.926-1.355,1.212-2.156s0.429-1.616,0.429-2.445c0-0.872-0.149-1.713-0.45-2.521
		c-0.301-0.809-0.719-1.523-1.255-2.146s-1.169-1.119-1.898-1.491c-0.729-0.371-1.53-0.558-2.402-0.558
		c-0.916,0-1.745,0.193-2.489,0.579c-0.743,0.387-1.38,0.897-1.909,1.534s-0.937,1.355-1.223,2.156S294.155,172.082,294.155,172.911
		z"/>
	<path class="st0" d="M312.433,167.355v13.172h-1.094v-15.231h0.837l10.683,13.408v-13.408h1.094v15.231h-1.008L312.433,167.355z"/>
</g>
<g>
	<g>
		<g>
			<rect x="58.942" y="77.949" class="st1" width="39.242" height="0.849"/>
			<rect x="58.942" y="52.822" class="st1" width="39.242" height="0.848"/>
			<rect x="58.942" y="65.386" class="st1" width="39.242" height="0.847"/>
			<rect x="58.942" y="90.513" class="st1" width="39.242" height="0.848"/>
			<rect x="58.942" y="103.075" class="st1" width="39.242" height="0.848"/>
		</g>
		<g>
			<rect x="61.823" y="42.946" class="st1" width="0.848" height="70.853"/>
			<rect x="72.701" y="42.946" class="st1" width="0.847" height="70.853"/>
			<rect x="83.578" y="42.946" class="st1" width="0.848" height="70.853"/>
			<rect x="94.456" y="42.946" class="st1" width="0.847" height="70.853"/>
		</g>
	</g>
	<g>
		<g>
			<rect x="267.799" y="74.405" class="st1" width="0.849" height="39.242"/>
			<rect x="292.927" y="74.405" class="st1" width="0.848" height="39.242"/>
			<rect x="280.363" y="74.405" class="st1" width="0.847" height="39.242"/>
			<rect x="255.236" y="74.405" class="st1" width="0.847" height="39.242"/>
			<rect x="242.673" y="74.405" class="st1" width="0.848" height="39.242"/>
		</g>
		<g>
			<rect x="232.797" y="77.286" class="st1" width="70.854" height="0.848"/>
			<rect x="232.797" y="88.164" class="st1" width="70.854" height="0.847"/>
			<rect x="232.797" y="99.04" class="st1" width="70.854" height="0.848"/>
			<rect x="232.797" y="109.919" class="st1" width="70.854" height="0.846"/>
		</g>
	</g>
	<g>
		<path class="st2" d="M52.524,88.845l4.777-25.231c0.148-0.747,0.448-1.27,0.896-1.568c0.446-0.298,0.92-0.447,1.417-0.447h9.78
			c0.448,0,0.832,0.163,1.156,0.485c0.323,0.325,0.486,0.709,0.486,1.157c0,0.149-0.025,0.349-0.075,0.598l-9.63,47.179
			c-0.101,0.697-0.499,1.344-1.194,1.941c-0.697,0.597-1.544,0.896-2.539,0.896h-6.195c-0.996,0-1.805-0.299-2.427-0.896
			c-0.622-0.598-1.058-1.244-1.306-1.941l-5.598-16.871l-5.601,16.871c-0.25,0.697-0.684,1.344-1.306,1.941
			c-0.622,0.597-1.431,0.896-2.426,0.896h-6.196c-0.997,0-1.841-0.299-2.539-0.896c-0.697-0.598-1.094-1.244-1.194-1.941
			l-9.63-47.179c-0.05-0.249-0.075-0.448-0.075-0.598c0-0.448,0.161-0.832,0.486-1.157c0.322-0.322,0.708-0.485,1.156-0.485h9.78
			c0.497,0,0.971,0.15,1.419,0.447c0.446,0.299,0.746,0.821,0.895,1.568l4.777,25.231l4.406-13.512
			c0.099-0.347,0.322-0.795,0.67-1.343c0.348-0.547,0.971-0.821,1.867-0.821h7.017c0.896,0,1.517,0.274,1.867,0.821
			c0.348,0.548,0.571,0.996,0.673,1.343L52.524,88.845z"/>
		<path class="st2" d="M119.485,101.91c0.547,0,1.019,0.198,1.419,0.597c0.396,0.398,0.597,0.871,0.597,1.418v7.913
			c0,0.548-0.201,1.021-0.597,1.418c-0.4,0.399-0.872,0.598-1.419,0.598H84.1c-0.547,0-1.021-0.198-1.419-0.598
			c-0.397-0.397-0.597-0.87-0.597-1.418V63.613c0-0.547,0.199-1.019,0.597-1.418c0.398-0.398,0.872-0.598,1.419-0.598h34.789
			c0.547,0,1.018,0.199,1.418,0.598c0.396,0.399,0.598,0.871,0.598,1.418v7.913c0,0.549-0.201,1.021-0.598,1.418
			c-0.4,0.399-0.871,0.598-1.418,0.598H95.895v8.063h21.351c0.547,0,1.018,0.199,1.418,0.597c0.398,0.399,0.598,0.872,0.598,1.419
			v7.913c0,0.548-0.199,1.021-0.598,1.419c-0.4,0.397-0.871,0.597-1.418,0.597H95.895v8.361H119.485z"/>
		<path class="st2" d="M135.832,113.854c-0.547,0-1.021-0.198-1.418-0.598c-0.398-0.397-0.598-0.87-0.598-1.418V63.613
			c0-0.547,0.199-1.019,0.598-1.418c0.397-0.398,0.871-0.598,1.418-0.598h24.038c3.334,0,6.145,0.461,8.435,1.381
			c2.288,0.922,4.117,2.116,5.487,3.584c1.368,1.468,2.351,3.135,2.948,5.001c0.597,1.866,0.896,3.722,0.896,5.563
			c0,1.443-0.163,2.699-0.486,3.768c-0.324,1.071-0.708,1.992-1.156,2.763c-0.448,0.772-0.909,1.394-1.381,1.866
			c-0.474,0.474-0.858,0.834-1.156,1.083c1.94,1.343,3.296,2.899,4.066,4.665c0.771,1.767,1.159,3.895,1.159,6.383
			c0,2.041-0.3,4.031-0.896,5.973c-0.598,1.94-1.58,3.67-2.948,5.188c-1.37,1.519-3.149,2.737-5.339,3.658
			c-2.189,0.921-4.878,1.381-8.063,1.381H135.832z M163.753,77.424c0-1.294-0.388-2.325-1.158-3.099
			c-0.771-0.77-1.903-1.156-3.396-1.156h-11.57v8.51h11.57c1.493,0,2.625-0.385,3.396-1.157
			C163.365,79.751,163.753,78.719,163.753,77.424z M147.628,102.282h12.318c1.491,0,2.686-0.435,3.582-1.306
			c0.896-0.871,1.344-1.953,1.344-3.248c0-1.294-0.448-2.376-1.344-3.247c-0.896-0.87-2.091-1.307-3.582-1.307h-12.318V102.282z"/>
		<path class="st2" d="M210.109,60.851c3.185,0,6.107,0.461,8.771,1.382c2.663,0.921,4.966,2.103,6.906,3.546
			c1.939,1.444,3.459,3.036,4.555,4.777c1.094,1.742,1.666,3.409,1.716,5.002c0,0.448-0.161,0.834-0.486,1.157
			c-0.322,0.323-0.683,0.485-1.081,0.485h-9.78c-0.697,0-1.257-0.1-1.678-0.299c-0.424-0.198-0.859-0.496-1.308-0.896
			c-0.149-0.15-0.386-0.398-0.708-0.747c-0.325-0.348-0.784-0.709-1.381-1.082c-0.6-0.373-1.346-0.697-2.24-0.971
			c-0.896-0.273-1.992-0.41-3.285-0.41c-0.947,0-1.854,0.063-2.725,0.187c-0.87,0.124-1.641,0.323-2.314,0.597
			c-0.673,0.274-1.22,0.66-1.643,1.157c-0.423,0.498-0.635,1.119-0.635,1.866c0,0.746,0.236,1.369,0.71,1.866
			c0.472,0.498,1.268,0.959,2.389,1.382c1.119,0.423,2.601,0.834,4.442,1.23c1.839,0.4,4.129,0.872,6.867,1.419
			c2.736,0.549,5.125,1.244,7.166,2.091c2.041,0.847,3.744,1.903,5.114,3.172c1.368,1.269,2.389,2.763,3.061,4.479
			c0.67,1.718,1.008,3.745,1.008,6.084c0,2.538-0.574,4.803-1.719,6.793c-1.145,1.991-2.751,3.695-4.814,5.114
			c-2.066,1.418-4.505,2.5-7.316,3.247c-2.812,0.746-5.886,1.12-9.219,1.12c-3.384,0-6.47-0.448-9.257-1.345
			c-2.786-0.896-5.188-2.077-7.203-3.546c-2.016-1.468-3.598-3.122-4.741-4.965c-1.145-1.84-1.741-3.706-1.792-5.598
			c0-0.448,0.161-0.833,0.486-1.157c0.322-0.323,0.683-0.485,1.081-0.485h9.78c0.696,0,1.243,0.088,1.643,0.262
			c0.398,0.175,0.794,0.436,1.194,0.783c0.197,0.199,0.497,0.523,0.895,0.971c0.398,0.448,0.935,0.909,1.605,1.382
			c0.673,0.473,1.519,0.884,2.539,1.23c1.019,0.349,2.277,0.522,3.77,0.522c2.638,0,4.84-0.285,6.606-0.857
			c1.766-0.572,2.65-1.605,2.65-3.099c0-0.746-0.325-1.368-0.971-1.866c-0.647-0.496-1.617-0.957-2.912-1.381
			c-1.295-0.422-2.948-0.833-4.964-1.231c-2.016-0.398-4.394-0.896-7.13-1.493c-5.125-1.095-8.871-2.923-11.234-5.487
			c-2.363-2.563-3.545-5.984-3.545-10.265c0-2.139,0.484-4.18,1.456-6.121c0.971-1.941,2.376-3.658,4.218-5.151
			c1.84-1.492,4.066-2.674,6.68-3.546C203.951,61.288,206.874,60.851,210.109,60.851z"/>
		<path class="st2" d="M246.763,113.854c-0.549,0-1.021-0.198-1.418-0.598c-0.4-0.397-0.598-0.87-0.598-1.418V63.613
			c0-0.547,0.197-1.019,0.598-1.418c0.397-0.398,0.869-0.598,1.418-0.598h9.778c0.547,0,1.021,0.199,1.419,0.598
			c0.397,0.399,0.597,0.871,0.597,1.418v48.225c0,0.548-0.199,1.021-0.597,1.418c-0.398,0.399-0.872,0.598-1.419,0.598H246.763z"/>
		<path class="st2" d="M311.111,61.598c0.547,0,1.02,0.199,1.418,0.598c0.398,0.399,0.598,0.871,0.598,1.418v7.913
			c0,0.549-0.199,1.021-0.598,1.418c-0.398,0.399-0.871,0.598-1.418,0.598h-13.138v38.296c0,0.548-0.201,1.021-0.597,1.418
			c-0.4,0.399-0.872,0.598-1.419,0.598h-9.78c-0.549,0-1.021-0.198-1.418-0.598c-0.398-0.397-0.598-0.87-0.598-1.418V73.542h-13.139
			c-0.547,0-1.02-0.198-1.419-0.598c-0.397-0.396-0.597-0.869-0.597-1.418v-7.913c0-0.547,0.199-1.019,0.597-1.418
			c0.398-0.398,0.872-0.598,1.419-0.598H311.111z"/>
		<path class="st2" d="M360.978,101.91c0.547,0,1.018,0.198,1.419,0.597c0.395,0.398,0.597,0.871,0.597,1.418v7.913
			c0,0.548-0.201,1.021-0.597,1.418c-0.4,0.399-0.872,0.598-1.419,0.598h-35.386c-0.547,0-1.02-0.198-1.418-0.598
			c-0.399-0.397-0.598-0.87-0.598-1.418V63.613c0-0.547,0.199-1.019,0.598-1.418c0.397-0.398,0.871-0.598,1.418-0.598h34.789
			c0.547,0,1.019,0.199,1.418,0.598c0.396,0.399,0.598,0.871,0.598,1.418v7.913c0,0.549-0.201,1.021-0.598,1.418
			c-0.399,0.399-0.871,0.598-1.418,0.598h-22.993v8.063h21.351c0.547,0,1.019,0.199,1.418,0.597
			c0.398,0.399,0.598,0.872,0.598,1.419v7.913c0,0.548-0.199,1.021-0.598,1.419c-0.399,0.397-0.871,0.597-1.418,0.597h-21.351v8.361
			H360.978z"/>
	</g>
	<g>
		<path class="st3" d="M86.75,110.52l-1.754,3.769H66.548l-1.479-3.769v-2.084c0-0.769,0.568-1.421,1.33-1.526l9.193-1.277h9.55
			l1.17,1.099c0.279,0.263,0.438,0.629,0.438,1.014V110.52z"/>
		<path class="st4" d="M85.143,105.632l-1.218-5.992h-7.211l-1.121,5.992l0.933,3.28c0.111,0.394,0.472,0.666,0.881,0.666h6.243
			c0.441,0,0.821-0.315,0.901-0.75L85.143,105.632z"/>
		<polygon class="st5" points="86.74,110.64 65.116,110.64 66.594,114.288 85.042,114.288 		"/>
		<path class="st4" d="M68.74,117.422h15.866c1.372,0,2.485-1.112,2.485-2.484l0,0c0-1.372-1.113-2.484-2.485-2.484H68.74
			c-1.372,0-2.484,1.112-2.484,2.484l0,0C66.256,116.31,67.368,117.422,68.74,117.422z"/>
		<path class="st6" d="M69.162,116.605h15.023c0.92,0,1.667-0.746,1.667-1.667l0,0c0-0.921-0.747-1.667-1.667-1.667H69.162
			c-0.921,0-1.667,0.746-1.667,1.667l0,0C67.495,115.858,68.241,116.605,69.162,116.605z"/>
		<path class="st3" d="M68.204,114.938c0,0.789,0.641,1.429,1.429,1.429c0.79,0,1.43-0.64,1.43-1.429c0-0.79-0.64-1.429-1.43-1.429
			C68.845,113.509,68.204,114.147,68.204,114.938z"/>
		<path class="st3" d="M75.245,114.938c0,0.789,0.639,1.429,1.428,1.429c0.79,0,1.431-0.64,1.431-1.429
			c0-0.79-0.641-1.429-1.431-1.429C75.884,113.509,75.245,114.147,75.245,114.938z"/>
		<path class="st3" d="M82.284,114.938c0,0.789,0.64,1.429,1.43,1.429c0.789,0,1.429-0.64,1.429-1.429
			c0-0.79-0.64-1.429-1.429-1.429C82.924,113.509,82.284,114.147,82.284,114.938z"/>
		<path class="st3" d="M76.382,99.64H84.4c0.275,0,0.498-0.225,0.498-0.5l0,0c0-0.275-0.223-0.498-0.498-0.498h-8.019
			c-0.275,0-0.5,0.223-0.5,0.498l0,0C75.882,99.415,76.106,99.64,76.382,99.64z"/>
		<path class="st7" d="M77.763,100.562l-0.975,4.96c-0.014,0.072-0.012,0.147,0.009,0.218l0.409,1.491
			c0.057,0.206,0.245,0.35,0.46,0.35h2.681v-7.404H78.23C78.004,100.176,77.807,100.337,77.763,100.562z"/>
		<path class="st7" d="M80.979,100.176h1.512c0.363,0,0.658,0.294,0.658,0.657v6.09c0,0.364-0.295,0.657-0.658,0.657h-1.512V100.176
			z"/>
		<path class="st4" d="M65.971,110.431l0.43,0.566c0.071,0.093,0.205,0.111,0.299,0.04l4.18-3.174
			c0.249-0.19,0.299-0.547,0.108-0.797l0,0c-0.189-0.25-0.547-0.299-0.796-0.109l-4.18,3.176
			C65.917,110.204,65.899,110.338,65.971,110.431z"/>
		
			<rect x="62.337" y="108.893" transform="matrix(-0.6035 -0.7973 0.7973 -0.6035 9.7464 231.8488)" class="st8" width="0.357" height="9.215"/>
		<path class="st5" d="M59.056,115.693h16.971c0.357,0,0.646-0.289,0.646-0.646l0,0c0-0.357-0.289-0.646-0.646-0.646H59.056V115.693
			z"/>
		<path class="st8" d="M61.04,111.39v5.254c0,0.592-0.48,1.071-1.071,1.071h-4.482c-0.308,0-0.464-0.372-0.248-0.592l1.82-1.854
			c0.21-0.214,0.327-0.499,0.327-0.798v-0.929c0-1.604,1.3-2.903,2.903-2.903l0,0C60.703,110.64,61.04,110.976,61.04,111.39z"/>
		<path class="st9" d="M60.082,116.644v-5.254c0-0.301-0.177-0.559-0.433-0.678c0.206-0.047,0.42-0.072,0.64-0.072l0,0
			c0.414,0,0.751,0.336,0.751,0.75v5.254c0,0.592-0.48,1.071-1.071,1.071h-0.958C59.602,117.715,60.082,117.235,60.082,116.644z"/>
	</g>
	<g>
		<path class="st4" d="M22.907,109.972l0.179-0.129c0.073-0.053,0.091-0.155,0.039-0.232l-1.022-1.426
			c-0.055-0.074-0.159-0.091-0.232-0.038l-0.181,0.129c-0.074,0.054-0.092,0.158-0.037,0.232l1.021,1.427
			C22.726,110.008,22.831,110.025,22.907,109.972z"/>
		
			<rect x="21.377" y="107.245" transform="matrix(-0.8111 0.585 -0.585 -0.8111 101.9284 182.6347)" class="st8" width="0.186" height="1.066"/>
		<path class="st4" d="M11.394,106.903c0.314,0,0.583,0.218,0.65,0.522l0.726,3.565H9.426v-4.233L11.394,106.903z"/>
		<path class="st3" d="M1.495,108.317l0.549-0.518l1.22-3.001c0.124-0.307,0.422-0.508,0.754-0.508h4.678
			c0.403,0,0.731,0.327,0.731,0.731v7.875H2.044H1.586c-0.332,0-0.602-0.27-0.602-0.603v-2.794
			C0.984,109.053,1.169,108.625,1.495,108.317z"/>
		<path class="st7" d="M8.409,105.388v1.56c0,0.229-0.186,0.414-0.414,0.414H3.454c-0.291,0-0.492-0.293-0.387-0.564l0.604-1.559
			c0.062-0.159,0.215-0.265,0.387-0.265h3.937C8.224,104.974,8.409,105.159,8.409,105.388z"/>
		<path class="st10" d="M9.372,112.897h21.104v-0.719c0-0.179-0.145-0.323-0.322-0.323H9.372V112.897z"/>
		<path class="st4" d="M2.162,114.256h27.517c0.44,0,0.797-0.357,0.797-0.799v-0.56H1.514v0.71
			C1.514,113.966,1.804,114.256,2.162,114.256z"/>
		<path class="st11" d="M30.037,111.272v0.584H9.426v-0.963h19.88C29.71,110.893,30.037,110.868,30.037,111.272z"/>
		<path class="st10" d="M1.495,108.317l0.258-0.243h7.673v0.27H1.468C1.477,108.335,1.485,108.325,1.495,108.317z"/>
		<path class="st12" d="M7.806,111.649c-1.495,0-2.748,1.036-3.081,2.431c-0.102,0.429-0.479,0.736-0.92,0.736l0,0
			c-0.037,0-0.066-0.03-0.066-0.067c0.034-2.216,1.842-4.002,4.067-4.002c2.226,0,4.032,1.786,4.069,4.002
			c0,0.037-0.031,0.067-0.067,0.067l0,0c-0.442,0-0.818-0.308-0.921-0.736C10.555,112.686,9.302,111.649,7.806,111.649z"/>
		<path class="st10" d="M4.725,114.08c0.333-1.395,1.586-2.431,3.081-2.431c1.496,0,2.749,1.036,3.081,2.431
			c0.015,0.062,0.035,0.119,0.061,0.176H4.664C4.689,114.199,4.71,114.142,4.725,114.08z"/>
		<path class="st13" d="M4.907,114.816c0,1.601,1.298,2.898,2.898,2.898c1.602,0,2.898-1.298,2.898-2.898s-1.297-2.9-2.898-2.9
			C6.205,111.916,4.907,113.216,4.907,114.816z"/>
		<path class="st3" d="M6.808,114.816c0,0.551,0.446,0.998,0.998,0.998c0.551,0,0.998-0.447,0.998-0.998c0-0.553-0.447-1-0.998-1
			C7.254,113.816,6.808,114.264,6.808,114.816z"/>
		<path class="st8" d="M2.455,112.814v0.921c0,0.501-0.407,0.91-0.909,0.91h-0.65C0.4,114.645,0,114.243,0,113.748V113.1
			c0-0.495,0.4-0.896,0.896-0.896h0.95C2.184,112.203,2.455,112.477,2.455,112.814z"/>
		<path class="st12" d="M20.063,110.747h6.882c2.226,0,4.032,1.786,4.067,4.002c0,0.037-0.029,0.067-0.065,0.067
			c-0.442,0-0.819-0.308-0.921-0.736c-0.332-1.395-1.586-2.431-3.081-2.431v0.012h-6.882v-0.012c-1.495,0-2.749,1.036-3.081,2.431
			c-0.101,0.429-0.479,0.736-0.921,0.736c-0.035,0-0.065-0.03-0.065-0.067C16.03,112.533,17.839,110.747,20.063,110.747z"/>
		<path class="st11" d="M16.981,114.08c0.332-1.395,1.586-2.431,3.081-2.431v0.012h6.882v-0.012c1.495,0,2.749,1.036,3.081,2.431
			c0.015,0.062,0.035,0.119,0.06,0.176H16.922C16.946,114.199,16.967,114.142,16.981,114.08z"/>
		<path class="st13" d="M17.356,114.816c0,1.601,1.299,2.898,2.899,2.898c1.602,0,2.899-1.298,2.899-2.898s-1.297-2.9-2.899-2.9
			C18.655,111.916,17.356,113.216,17.356,114.816z"/>
		<path class="st3" d="M19.257,114.816c0,0.551,0.446,0.998,0.999,0.998c0.552,0,0.999-0.447,0.999-0.998c0-0.553-0.447-1-0.999-1
			C19.703,113.816,19.257,114.264,19.257,114.816z"/>
		<path class="st13" d="M23.934,114.816c0,1.601,1.299,2.898,2.899,2.898c1.601,0,2.899-1.298,2.899-2.898s-1.299-2.9-2.899-2.9
			C25.233,111.916,23.934,113.216,23.934,114.816z"/>
		<path class="st3" d="M25.834,114.816c0,0.551,0.447,0.998,0.999,0.998c0.552,0,1-0.447,1-0.998c0-0.553-0.448-1-1-1
			C26.281,113.816,25.834,114.264,25.834,114.816z"/>
		<path class="st11" d="M22.668,110.747h4.494v-0.629c0-0.306-0.248-0.553-0.553-0.553h-3.389c-0.305,0-0.553,0.247-0.553,0.553
			V110.747z"/>
		<g>
			<path class="st3" d="M28.158,110.313l-15.279-6.31c-0.427-0.176-0.689-0.612-0.643-1.073l0.723-7.339
				c0.048-0.497-0.233-0.966-0.694-1.157l-3.065-1.267c-0.239-0.098-0.395-0.329-0.395-0.589l0,0c0.001-0.38,0.332-0.674,0.71-0.633
				l4.163,0.468c0.165,0.019,0.326,0.073,0.47,0.16l20.327,12.298c0.405,0.245,0.525,0.777,0.265,1.175l-1.875,2.859l-3.054,1.38
				C29.288,110.523,28.688,110.533,28.158,110.313z"/>
			<path class="st14" d="M13.881,103.246l2.278-5.524c0.053-0.126-0.007-0.269-0.132-0.321l-0.039-0.016
				c-0.125-0.05-0.269,0.009-0.32,0.134l-2.279,5.525c-0.051,0.126,0.008,0.268,0.133,0.321l0.039,0.016
				C13.686,103.431,13.828,103.371,13.881,103.246z"/>
			<path class="st14" d="M16.52,104.336l2.279-5.526c0.052-0.124-0.008-0.269-0.133-0.319l-0.039-0.016
				c-0.125-0.053-0.267,0.008-0.32,0.133l-2.278,5.524c-0.053,0.126,0.009,0.27,0.133,0.32l0.04,0.016
				C16.325,104.521,16.469,104.46,16.52,104.336z"/>
			<path class="st14" d="M19.158,105.424l2.281-5.525c0.051-0.125-0.008-0.268-0.133-0.32l-0.04-0.015
				c-0.124-0.052-0.269,0.007-0.319,0.133l-2.279,5.525c-0.052,0.124,0.009,0.268,0.134,0.319l0.037,0.017
				C18.966,105.608,19.107,105.55,19.158,105.424z"/>
			<path class="st14" d="M21.8,106.513l2.278-5.524c0.052-0.125-0.009-0.269-0.133-0.321l-0.038-0.016
				c-0.127-0.051-0.27,0.009-0.321,0.133l-2.278,5.525c-0.052,0.126,0.007,0.269,0.134,0.32l0.037,0.016
				C21.604,106.697,21.748,106.638,21.8,106.513z"/>
			<path class="st14" d="M24.438,107.602l2.279-5.525c0.051-0.126-0.008-0.27-0.134-0.319l-0.039-0.016
				c-0.124-0.053-0.267,0.007-0.318,0.133l-2.28,5.525c-0.052,0.123,0.009,0.268,0.133,0.319l0.04,0.016
				C24.244,107.787,24.387,107.728,24.438,107.602z"/>
			<path class="st14" d="M27.078,108.689l2.28-5.524c0.051-0.125-0.009-0.268-0.134-0.321l-0.039-0.016
				c-0.125-0.05-0.268,0.009-0.32,0.135l-2.279,5.524c-0.05,0.125,0.009,0.269,0.134,0.321l0.039,0.016
				C26.884,108.875,27.026,108.815,27.078,108.689z"/>
			<path class="st14" d="M29.719,109.779l2.278-5.525c0.051-0.124-0.008-0.268-0.134-0.319l-0.038-0.016
				c-0.125-0.053-0.268,0.008-0.32,0.132l-2.279,5.525c-0.051,0.126,0.009,0.269,0.134,0.319l0.037,0.017
				C29.522,109.965,29.666,109.904,29.719,109.779z"/>
		</g>
		<path class="st10" d="M6.724,109.239h0.694c0.1,0,0.182-0.082,0.182-0.183l0,0c0-0.1-0.082-0.183-0.182-0.183H6.724
			c-0.101,0-0.182,0.083-0.182,0.183l0,0C6.542,109.157,6.623,109.239,6.724,109.239z"/>
	</g>
	<g>
		<g>
			<g>
				<path class="st15" d="M402.546,14.92c0.121,0,0.239-0.066,0.298-0.182c0.083-0.165,0.018-0.366-0.147-0.45L375.219,0.302
					c-0.063-0.031-0.135-0.042-0.205-0.031l-48.636,7.886c-0.183,0.029-0.307,0.201-0.276,0.384c0.029,0.182,0.2,0.306,0.383,0.275
					l48.529-7.867l27.381,13.935C402.443,14.908,402.494,14.92,402.546,14.92z"/>
			</g>
		</g>
		
			<rect x="375.569" y="14.13" transform="matrix(-1 -1.224647e-16 1.224647e-16 -1 774.663 31.4347)" class="st3" width="23.524" height="3.175"/>
		<path class="st16" d="M397.59,19.007h11.777c1.952,0,3.535-1.583,3.535-3.537v-1.269c0-0.575-0.467-1.041-1.043-1.041h-16.764
			c-0.574,0-1.041,0.466-1.041,1.041v1.269C394.055,17.424,395.638,19.007,397.59,19.007z"/>
		<path class="st3" d="M375.456,2.66c-0.073-0.382-0.62-0.382-0.693,0l-2.186,12.341h-0.787l2.812-14.582
			c0.107-0.559,0.907-0.559,1.016,0l2.811,14.582h-0.788L375.456,2.66z"/>
		<path class="st3" d="M371.646,16.083v9.235h7.845v-9.235H371.646z M372.377,16.942h6.384v7.517h-6.384V16.942z"/>
		<g>
			<g>
				<path class="st16" d="M372.381,40.875c0-0.029,0.028-0.058,0.076-0.074l5.48-1.901l-5.48-1.9
					c-0.048-0.017-0.076-0.044-0.076-0.073s0.028-0.058,0.076-0.074l5.691-1.974c0.081-0.028,0.192-0.018,0.249,0.021
					c0.056,0.042,0.035,0.097-0.045,0.126l-5.479,1.9l5.479,1.9c0.008,0.003,0.013,0.008,0.021,0.013
					c0.008,0.003,0.017,0.006,0.024,0.012c0.001,0.001,0.001,0.002,0.003,0.004c0.007,0.005,0.01,0.01,0.014,0.016
					c0.007,0.008,0.01,0.015,0.012,0.023c0,0.002,0.003,0.004,0.003,0.006c0,0.002-0.003,0.004-0.003,0.006
					c-0.003,0.026-0.026,0.053-0.073,0.069l-5.479,1.9l5.479,1.9c0.005,0.002,0.008,0.006,0.014,0.009
					c0.01,0.004,0.022,0.008,0.031,0.015c0.002,0.002,0.002,0.004,0.004,0.005c0.007,0.006,0.009,0.01,0.013,0.015
					c0.007,0.008,0.01,0.015,0.012,0.024c0,0.002,0.003,0.004,0.003,0.007c0,0.001-0.003,0.004-0.003,0.006
					c-0.002,0.015-0.01,0.031-0.028,0.044V42.9c-0.004,0.003-0.011,0.004-0.015,0.007c-0.01,0.006-0.018,0.012-0.03,0.017
					l-5.479,1.899l5.479,1.902c0.005,0.002,0.008,0.005,0.014,0.007c0.01,0.004,0.022,0.01,0.031,0.016
					c0.002,0.001,0.002,0.003,0.004,0.005c0.007,0.005,0.009,0.009,0.013,0.014c0.007,0.009,0.01,0.018,0.012,0.024
					c0,0.002,0.003,0.005,0.003,0.008c0,0.002-0.003,0.004-0.003,0.004c-0.002,0.017-0.01,0.032-0.028,0.046c0,0,0,0,0,0.001
					c-0.004,0.002-0.011,0.005-0.015,0.007c-0.01,0.006-0.018,0.011-0.03,0.017l-5.479,1.9l5.479,1.9
					c0.005,0.003,0.008,0.005,0.013,0.008c0.011,0.005,0.022,0.009,0.032,0.015c0.002,0.002,0.002,0.004,0.004,0.006
					c0.007,0.004,0.009,0.009,0.013,0.015c0.007,0.007,0.01,0.015,0.012,0.023c0,0.003,0.003,0.005,0.003,0.008
					c0,0.001-0.003,0.002-0.003,0.004c-0.002,0.016-0.01,0.031-0.028,0.045v0.001c-0.004,0.004-0.011,0.005-0.015,0.008
					c-0.01,0.005-0.018,0.012-0.03,0.016l-5.479,1.9l5.479,1.9c0.005,0.002,0.008,0.006,0.014,0.008
					c0.01,0.005,0.022,0.01,0.031,0.017c0.002,0.001,0.002,0.003,0.004,0.005c0.007,0.004,0.009,0.008,0.013,0.014
					c0.007,0.008,0.01,0.016,0.012,0.024c0,0.003,0.003,0.004,0.003,0.007c0,0.002-0.003,0.003-0.003,0.004
					c-0.002,0.018-0.01,0.033-0.028,0.047v0.001c-0.004,0.002-0.011,0.004-0.015,0.006c-0.01,0.007-0.018,0.012-0.03,0.017
					l-5.479,1.9l5.479,1.9c0.005,0.002,0.008,0.006,0.014,0.009c0.01,0.004,0.022,0.008,0.031,0.015
					c0.002,0.002,0.002,0.003,0.004,0.005c0.007,0.004,0.009,0.01,0.013,0.015c0.007,0.008,0.01,0.015,0.012,0.024
					c0,0.002,0.003,0.004,0.003,0.007c0,0.001-0.003,0.002-0.003,0.005c-0.002,0.017-0.01,0.031-0.028,0.045v0.001
					c-0.004,0.003-0.011,0.004-0.015,0.006c-0.01,0.007-0.018,0.013-0.03,0.017l-5.479,1.9l5.479,1.9
					c0.05,0.019,0.076,0.046,0.076,0.075c0,0.018-0.011,0.035-0.031,0.05c-0.057,0.042-0.168,0.052-0.249,0.023l-5.691-1.974
					c-0.048-0.018-0.076-0.046-0.076-0.075c0-0.029,0.028-0.057,0.076-0.073l5.479-1.9l-5.479-1.901
					c-0.048-0.017-0.076-0.044-0.076-0.073c0-0.029,0.028-0.058,0.076-0.074l5.479-1.9l-5.479-1.9
					c-0.048-0.017-0.076-0.045-0.076-0.074c0-0.029,0.028-0.057,0.076-0.073l5.479-1.9l-5.479-1.901
					c-0.048-0.017-0.076-0.044-0.076-0.073s0.028-0.058,0.076-0.074l5.479-1.9l-5.479-1.901c-0.048-0.016-0.076-0.044-0.076-0.074
					c0-0.029,0.028-0.056,0.076-0.073l5.479-1.9l-5.479-1.901C372.409,40.932,372.381,40.904,372.381,40.875z"/>
				<path class="st16" d="M372.381,64.748c0-0.029,0.028-0.058,0.076-0.074l5.691-1.975c0.081-0.028,0.192-0.019,0.249,0.023
					c0.056,0.04,0.035,0.096-0.045,0.124l-5.479,1.901l5.479,1.9c0.008,0.002,0.013,0.009,0.021,0.012
					c0.008,0.003,0.017,0.007,0.024,0.012c0.001,0.002,0.001,0.003,0.003,0.004c0.007,0.005,0.01,0.011,0.015,0.017
					c0.006,0.008,0.009,0.015,0.011,0.023c0,0.001,0.003,0.004,0.003,0.006c0,0.001-0.003,0.003-0.003,0.005
					c-0.003,0.026-0.026,0.053-0.073,0.069l-5.479,1.9l5.479,1.9c0.005,0.003,0.008,0.007,0.013,0.009
					c0.011,0.005,0.022,0.009,0.032,0.016c0.002,0.001,0.002,0.003,0.004,0.005c0.007,0.006,0.009,0.01,0.013,0.014
					c0.007,0.009,0.01,0.017,0.012,0.024c0,0.003,0.003,0.004,0.003,0.007c0,0.002-0.003,0.004-0.003,0.006
					c-0.002,0.016-0.01,0.031-0.028,0.045l0,0c-0.004,0.004-0.011,0.005-0.015,0.007c-0.01,0.006-0.018,0.012-0.03,0.017l-5.479,1.9
					l5.479,1.902c0.005,0.001,0.008,0.004,0.014,0.006c0.01,0.006,0.022,0.01,0.031,0.016c0.002,0.002,0.002,0.004,0.004,0.006
					c0.007,0.005,0.009,0.009,0.013,0.014c0.007,0.008,0.01,0.016,0.012,0.024c0,0.002,0.003,0.004,0.003,0.007
					c0,0.002-0.003,0.004-0.003,0.006c-0.002,0.016-0.01,0.03-0.028,0.045l0,0c-0.004,0.003-0.011,0.004-0.015,0.008
					c-0.01,0.005-0.018,0.011-0.03,0.016l-5.479,1.9l5.479,1.901c0.005,0.002,0.008,0.005,0.014,0.007
					c0.01,0.006,0.022,0.009,0.031,0.015c0.002,0.002,0.002,0.006,0.004,0.007c0.007,0.005,0.009,0.009,0.013,0.014
					c0.007,0.008,0.01,0.016,0.012,0.023c0,0.004,0.003,0.006,0.003,0.008c0,0.002-0.003,0.003-0.003,0.005
					c-0.002,0.016-0.01,0.031-0.028,0.045l0,0c-0.004,0.003-0.011,0.006-0.015,0.008c-0.01,0.005-0.018,0.012-0.03,0.017l-5.479,1.9
					l5.479,1.901c0.005,0.001,0.008,0.004,0.014,0.006c0.01,0.007,0.022,0.01,0.031,0.017c0.002,0.002,0.002,0.004,0.004,0.006
					c0.007,0.004,0.009,0.008,0.013,0.014c0.007,0.007,0.01,0.016,0.012,0.023c0,0.003,0.003,0.005,0.003,0.007
					c0,0.002-0.003,0.004-0.003,0.006c-0.002,0.017-0.01,0.03-0.028,0.046l0,0c-0.004,0.002-0.011,0.004-0.015,0.007
					c-0.01,0.005-0.018,0.012-0.03,0.016l-5.479,1.9l5.479,1.901c0.005,0.002,0.008,0.006,0.014,0.008
					c0.01,0.005,0.022,0.008,0.031,0.015c0.002,0.002,0.002,0.005,0.004,0.006c0.007,0.005,0.009,0.01,0.013,0.014
					c0.007,0.009,0.01,0.016,0.012,0.024c0,0.003,0.003,0.005,0.003,0.007c0,0.002-0.003,0.003-0.003,0.006
					c-0.002,0.016-0.01,0.031-0.028,0.045l0,0c-0.004,0.004-0.011,0.005-0.015,0.007c-0.01,0.006-0.018,0.012-0.03,0.016
					l-5.479,1.901l5.479,1.9c0.05,0.019,0.076,0.046,0.076,0.073c0,0.005-0.006,0.008-0.007,0.012
					c0.018,0.035-0.007,0.072-0.069,0.096l-5.479,1.9l5.479,1.9c0.005,0.001,0.008,0.005,0.013,0.007
					c0.011,0.006,0.022,0.01,0.032,0.016c0.002,0.003,0.002,0.004,0.004,0.006c0.007,0.004,0.009,0.009,0.013,0.015
					c0.007,0.007,0.01,0.016,0.012,0.023c0,0.003,0.003,0.005,0.003,0.007c0,0.002-0.003,0.003-0.003,0.005
					c-0.002,0.017-0.01,0.031-0.028,0.045v0.001c-0.004,0.003-0.011,0.005-0.015,0.008c-0.01,0.005-0.018,0.012-0.03,0.016
					l-5.479,1.9l5.479,1.9c0.005,0.002,0.008,0.005,0.013,0.009c0.011,0.004,0.022,0.008,0.032,0.014
					c0.002,0.003,0.002,0.005,0.004,0.007c0.007,0.004,0.009,0.009,0.013,0.014c0.007,0.009,0.01,0.016,0.012,0.024
					c0,0.003,0.003,0.004,0.003,0.007c0,0.002-0.003,0.003-0.003,0.004c-0.002,0.016-0.01,0.033-0.028,0.047l0,0
					c-0.004,0.003-0.011,0.005-0.015,0.007c-0.01,0.005-0.018,0.012-0.03,0.017l-5.479,1.9l5.479,1.9
					c0.005,0.002,0.008,0.005,0.014,0.008c0.01,0.005,0.022,0.009,0.031,0.016c0.002,0.002,0.002,0.003,0.004,0.005
					c0.007,0.004,0.009,0.01,0.013,0.015c0.007,0.008,0.01,0.016,0.012,0.024c0,0.002,0.003,0.004,0.003,0.006
					c0,0.002-0.003,0.005-0.003,0.006c-0.002,0.017-0.01,0.031-0.028,0.045v0.001c-0.004,0.002-0.011,0.004-0.015,0.007
					c-0.01,0.006-0.018,0.012-0.03,0.016l-5.479,1.9l5.479,1.9c0.05,0.019,0.076,0.047,0.076,0.074c0,0.019-0.011,0.036-0.031,0.051
					c-0.057,0.042-0.168,0.052-0.249,0.023l-5.691-1.974c-0.048-0.018-0.076-0.046-0.076-0.075c0-0.029,0.028-0.057,0.076-0.073
					l5.479-1.901l-5.479-1.9c-0.048-0.017-0.076-0.044-0.076-0.073s0.028-0.058,0.076-0.074l5.479-1.9l-5.479-1.9
					c-0.048-0.017-0.076-0.045-0.076-0.074c0-0.029,0.028-0.057,0.076-0.073l5.479-1.901l-5.479-1.901
					c-0.048-0.016-0.076-0.043-0.076-0.072c0-0.029,0.028-0.058,0.076-0.074l5.525-1.916l-5.525-1.918
					c-0.048-0.017-0.076-0.044-0.076-0.073c0-0.03,0.028-0.057,0.076-0.073l5.479-1.9l-5.479-1.901
					c-0.048-0.017-0.076-0.045-0.076-0.074c0-0.029,0.028-0.056,0.076-0.073l5.479-1.901l-5.479-1.9
					c-0.048-0.017-0.076-0.043-0.076-0.073c0-0.029,0.028-0.058,0.076-0.073l5.479-1.901l-5.479-1.9
					c-0.048-0.017-0.076-0.045-0.076-0.074s0.028-0.056,0.076-0.073l5.479-1.901l-5.479-1.9c-0.048-0.018-0.076-0.045-0.076-0.074
					c0-0.027,0.028-0.057,0.076-0.073l5.479-1.901l-5.479-1.9c-0.048-0.017-0.076-0.045-0.076-0.074s0.028-0.057,0.076-0.072
					l5.48-1.902l-5.48-1.9C372.409,64.804,372.381,64.777,372.381,64.748z"/>
			</g>
		</g>
		<g>
			<g>
				<path class="st17" d="M306.189,8.953c-0.029,0-0.058,0.029-0.074,0.077l-1.901,5.479l-1.9-5.479
					c-0.017-0.048-0.046-0.077-0.075-0.077s-0.056,0.029-0.072,0.077l-1.975,5.689c-0.028,0.081-0.018,0.192,0.022,0.248
					c0.041,0.058,0.097,0.037,0.124-0.044l1.9-5.479l1.902,5.479c0.003,0.009,0.007,0.013,0.011,0.021
					c0.005,0.008,0.007,0.018,0.013,0.023c0,0.002,0.002,0.004,0.004,0.006c0.005,0.005,0.01,0.009,0.017,0.013
					c0.007,0.005,0.015,0.01,0.022,0.011c0.003,0,0.005,0.004,0.008,0.004c0.002,0,0.004-0.004,0.005-0.004
					c0.027-0.002,0.053-0.025,0.07-0.073l1.9-5.479l1.9,5.479c0.002,0.007,0.005,0.008,0.007,0.013
					c0.006,0.012,0.01,0.024,0.016,0.031c0.003,0.004,0.004,0.004,0.006,0.006c0.004,0.005,0.009,0.008,0.015,0.012
					c0.007,0.006,0.016,0.011,0.023,0.012c0.003,0,0.005,0.004,0.007,0.004c0.002,0,0.003-0.004,0.005-0.004
					c0.016-0.001,0.031-0.009,0.045-0.028c0-0.001,0.001,0,0.001-0.001c0.003-0.003,0.004-0.008,0.008-0.013
					c0.005-0.01,0.011-0.019,0.016-0.031l1.9-5.479l1.9,5.479c0.002,0.007,0.005,0.008,0.009,0.013
					c0.004,0.012,0.008,0.024,0.015,0.031c0.002,0.004,0.004,0.004,0.006,0.006c0.004,0.005,0.009,0.008,0.014,0.012
					c0.009,0.006,0.016,0.011,0.024,0.012c0.003,0,0.004,0.004,0.007,0.004c0.002,0,0.003-0.004,0.004-0.004
					c0.017-0.001,0.033-0.009,0.047-0.028c0-0.001,0,0,0-0.001c0.003-0.003,0.005-0.008,0.007-0.013
					c0.006-0.01,0.012-0.019,0.017-0.031l1.9-5.479l1.9,5.479c0.002,0.006,0.006,0.008,0.008,0.013
					c0.005,0.012,0.009,0.024,0.016,0.031c0.002,0.004,0.003,0.004,0.005,0.006c0.004,0.005,0.01,0.008,0.015,0.012
					c0.008,0.006,0.015,0.011,0.025,0.012c0.002,0,0.004,0.004,0.006,0.004c0.002,0,0.004-0.004,0.006-0.004
					c0.016-0.001,0.031-0.009,0.045-0.028c0,0,0.001,0,0.001-0.001c0.002-0.003,0.004-0.009,0.007-0.014
					c0.006-0.009,0.012-0.018,0.016-0.03l1.9-5.479l1.9,5.479c0.002,0.007,0.006,0.008,0.009,0.013
					c0.004,0.012,0.009,0.024,0.015,0.031c0.002,0.004,0.004,0.004,0.005,0.006c0.006,0.005,0.01,0.008,0.015,0.012
					c0.009,0.006,0.016,0.011,0.024,0.012c0.003,0,0.004,0.004,0.008,0.004c0.002,0,0.003-0.004,0.004-0.004
					c0.016-0.001,0.032-0.009,0.046-0.028c0-0.001,0,0,0-0.001c0.003-0.003,0.005-0.008,0.008-0.013
					c0.005-0.01,0.011-0.019,0.016-0.031l1.901-5.479l1.9,5.479c0.002,0.007,0.005,0.008,0.007,0.013
					c0.006,0.012,0.01,0.024,0.016,0.031c0.002,0.004,0.003,0.004,0.006,0.006c0.004,0.005,0.008,0.008,0.015,0.012
					c0.007,0.006,0.016,0.011,0.023,0.012c0.002,0,0.005,0.004,0.007,0.004c0.002,0,0.004-0.004,0.005-0.004
					c0.016-0.001,0.031-0.009,0.045-0.028c0-0.001,0.001,0,0.001-0.001c0.002-0.003,0.005-0.008,0.008-0.013
					c0.005-0.01,0.012-0.019,0.016-0.031l1.9-5.479l1.9,5.479c0.018,0.05,0.046,0.077,0.074,0.077c0.018,0,0.034-0.01,0.05-0.033
					c0.041-0.056,0.052-0.167,0.023-0.248l-1.975-5.689c-0.016-0.048-0.044-0.077-0.073-0.077s-0.057,0.029-0.073,0.077
					l-1.901,5.477l-1.901-5.477c-0.016-0.048-0.043-0.077-0.072-0.077s-0.058,0.029-0.075,0.077l-1.899,5.477l-1.901-5.477
					c-0.017-0.048-0.045-0.077-0.074-0.077s-0.057,0.029-0.074,0.077l-1.9,5.477l-1.9-5.477c-0.017-0.048-0.044-0.077-0.073-0.077
					s-0.058,0.029-0.074,0.077l-1.9,5.477l-1.9-5.477c-0.017-0.048-0.045-0.077-0.074-0.077s-0.057,0.029-0.073,0.077l-1.901,5.477
					l-1.901-5.477C306.246,8.982,306.219,8.953,306.189,8.953z"/>
				<path class="st17" d="M330.06,8.953c-0.029,0-0.056,0.029-0.073,0.077l-1.975,5.689c-0.027,0.081-0.018,0.192,0.022,0.248
					c0.042,0.058,0.098,0.037,0.125-0.044l1.9-5.479l1.902,5.479c0.002,0.009,0.007,0.013,0.011,0.021
					c0.005,0.008,0.008,0.018,0.012,0.023c0.002,0.002,0.003,0.004,0.004,0.006c0.006,0.005,0.011,0.009,0.017,0.013
					c0.007,0.005,0.016,0.01,0.022,0.011c0.002,0,0.005,0.004,0.007,0.004c0.002,0,0.004-0.004,0.006-0.004
					c0.026-0.002,0.054-0.025,0.069-0.073l1.9-5.479l1.901,5.479c0.002,0.006,0.004,0.008,0.007,0.013
					c0.006,0.012,0.009,0.024,0.015,0.031c0.002,0.004,0.006,0.004,0.007,0.006c0.004,0.005,0.009,0.008,0.014,0.012
					c0.008,0.006,0.016,0.011,0.023,0.012c0.004,0,0.005,0.004,0.008,0.004c0.001,0,0.003-0.004,0.005-0.004
					c0.016-0.001,0.031-0.009,0.044-0.028c0.001,0,0.001,0,0.001-0.001c0.005-0.003,0.006-0.009,0.008-0.014
					c0.006-0.009,0.012-0.018,0.016-0.03l1.901-5.479l1.9,5.479c0.002,0.007,0.006,0.008,0.007,0.013
					c0.006,0.012,0.01,0.024,0.017,0.031c0.002,0.004,0.004,0.004,0.006,0.006c0.004,0.005,0.009,0.008,0.013,0.012
					c0.008,0.006,0.017,0.011,0.025,0.012c0.002,0,0.005,0.004,0.006,0.004c0.002,0,0.004-0.004,0.005-0.004
					c0.018-0.001,0.032-0.009,0.046-0.028c0.001-0.001,0.001,0,0.001-0.001c0.002-0.003,0.004-0.008,0.007-0.013
					c0.005-0.01,0.012-0.019,0.016-0.031l1.9-5.479l1.901,5.479c0.002,0.007,0.006,0.008,0.008,0.013
					c0.005,0.012,0.008,0.024,0.015,0.031c0.002,0.004,0.005,0.004,0.006,0.006c0.004,0.005,0.01,0.008,0.014,0.012
					c0.009,0.006,0.016,0.011,0.024,0.012c0.003,0,0.005,0.004,0.007,0.004c0.001,0,0.003-0.004,0.006-0.004
					c0.016-0.001,0.031-0.009,0.044-0.028c0.001-0.001,0.001,0,0.001-0.001c0.004-0.003,0.004-0.008,0.007-0.013
					c0.006-0.01,0.012-0.019,0.016-0.031l1.9-5.479l1.901,5.479c0.003,0.007,0.007,0.008,0.008,0.013
					c0.005,0.012,0.01,0.024,0.016,0.031c0.001,0.004,0.004,0.004,0.006,0.006c0.005,0.005,0.009,0.008,0.013,0.012
					c0.009,0.006,0.017,0.011,0.024,0.012c0.003,0,0.006,0.004,0.007,0.004c0.003,0,0.005-0.004,0.006-0.004
					c0.017-0.001,0.031-0.009,0.045-0.028c0.001-0.001,0.001,0,0.001-0.001c0.003-0.003,0.004-0.008,0.006-0.013
					c0.007-0.01,0.013-0.019,0.018-0.031l1.9-5.479l1.901,5.479c0.002,0.007,0.005,0.008,0.007,0.013
					c0.005,0.012,0.009,0.024,0.015,0.031c0.002,0.004,0.004,0.004,0.007,0.006c0.004,0.005,0.009,0.008,0.014,0.012
					c0.008,0.006,0.016,0.011,0.023,0.012c0.002,0,0.006,0.004,0.008,0.004c0.001,0,0.003-0.004,0.005-0.004
					c0.016-0.001,0.031-0.009,0.045-0.028c0-0.001,0,0,0-0.001c0.004-0.003,0.004-0.008,0.008-0.013
					c0.005-0.01,0.012-0.019,0.016-0.031l1.9-5.479l1.901,5.479c0.018,0.05,0.045,0.077,0.073,0.077
					c0.004,0,0.007-0.006,0.011-0.007c0.035,0.017,0.073-0.008,0.095-0.07l1.901-5.479l1.9,5.479
					c0.002,0.006,0.006,0.008,0.008,0.013c0.005,0.012,0.009,0.024,0.016,0.031c0.002,0.004,0.003,0.004,0.005,0.006
					c0.004,0.005,0.01,0.008,0.014,0.012c0.009,0.006,0.017,0.011,0.024,0.012c0.002,0,0.005,0.004,0.007,0.004
					c0.002,0,0.005-0.004,0.005-0.004c0.018-0.001,0.032-0.009,0.046-0.028c0,0,0.001,0,0.001-0.001
					c0.002-0.003,0.004-0.009,0.007-0.014c0.006-0.009,0.012-0.018,0.016-0.03l1.9-5.479l1.9,5.479
					c0.003,0.006,0.006,0.008,0.009,0.013c0.004,0.012,0.009,0.024,0.015,0.031c0.002,0.004,0.004,0.004,0.005,0.006
					c0.006,0.005,0.011,0.008,0.015,0.012c0.009,0.006,0.016,0.011,0.024,0.012c0.003,0,0.004,0.004,0.008,0.004
					c0.001,0,0.003-0.004,0.005-0.004c0.016-0.001,0.031-0.009,0.044-0.028c0-0.001,0.001,0,0.001-0.001
					c0.003-0.003,0.004-0.008,0.008-0.013c0.005-0.01,0.011-0.019,0.016-0.031l1.9-5.479l1.901,5.479
					c0.002,0.007,0.005,0.008,0.007,0.013c0.004,0.012,0.01,0.024,0.016,0.031c0.001,0.004,0.003,0.004,0.006,0.006
					c0.004,0.005,0.008,0.008,0.014,0.012c0.008,0.006,0.017,0.011,0.023,0.012c0.003,0,0.006,0.004,0.008,0.004
					c0.002,0,0.004-0.004,0.005-0.004c0.017-0.001,0.031-0.009,0.045-0.028c0-0.001,0.001,0,0.001-0.001
					c0.002-0.003,0.005-0.008,0.007-0.013c0.006-0.01,0.013-0.019,0.017-0.031l1.9-5.479l1.9,5.479
					c0.017,0.05,0.045,0.077,0.074,0.077c0.018,0,0.035-0.01,0.05-0.033c0.041-0.056,0.052-0.167,0.022-0.248l-1.973-5.689
					c-0.018-0.048-0.045-0.077-0.074-0.077s-0.057,0.029-0.074,0.077l-1.9,5.477l-1.9-5.477c-0.017-0.048-0.044-0.077-0.074-0.077
					c-0.029,0-0.057,0.029-0.073,0.077l-1.9,5.477l-1.9-5.477c-0.018-0.048-0.046-0.077-0.075-0.077
					c-0.029,0-0.056,0.029-0.074,0.077l-1.9,5.477l-1.9-5.477c-0.017-0.048-0.044-0.077-0.073-0.077
					c-0.03,0-0.058,0.029-0.074,0.077l-1.916,5.524l-1.917-5.524c-0.017-0.048-0.044-0.077-0.074-0.077
					c-0.028,0-0.056,0.029-0.072,0.077l-1.901,5.477l-1.9-5.477c-0.018-0.048-0.045-0.077-0.074-0.077s-0.057,0.029-0.074,0.077
					l-1.901,5.477l-1.9-5.477c-0.017-0.048-0.044-0.077-0.074-0.077c-0.029,0-0.056,0.029-0.072,0.077l-1.901,5.477l-1.9-5.477
					c-0.017-0.048-0.045-0.077-0.074-0.077c-0.029,0-0.057,0.029-0.073,0.077l-1.901,5.477l-1.9-5.477
					c-0.017-0.048-0.044-0.077-0.073-0.077c-0.03,0-0.057,0.029-0.073,0.077l-1.901,5.477l-1.9-5.477
					c-0.018-0.048-0.045-0.077-0.074-0.077s-0.057,0.029-0.073,0.077l-1.901,5.479l-1.901-5.479
					C330.117,8.982,330.092,8.953,330.06,8.953z"/>
			</g>
		</g>
		<path class="st3" d="M371.646,34.269v72.658h7.517V34.269H371.646z M372.59,35.741h5.63v69.713h-5.63V35.741z"/>
		
			<rect x="372.255" y="38.701" transform="matrix(-1 -1.224647e-16 1.224647e-16 -1 750.6836 77.6739)" class="st3" width="6.174" height="0.271"/>
		
			<rect x="372.255" y="42.669" transform="matrix(-1 -1.224647e-16 1.224647e-16 -1 750.6836 85.6094)" class="st3" width="6.174" height="0.271"/>
		
			<rect x="372.255" y="46.635" transform="matrix(-1 -1.224647e-16 1.224647e-16 -1 750.6836 93.542)" class="st3" width="6.174" height="0.273"/>
		
			<rect x="372.255" y="50.604" transform="matrix(-1 -1.224647e-16 1.224647e-16 -1 750.6836 101.4776)" class="st3" width="6.174" height="0.271"/>
		
			<rect x="372.255" y="54.569" transform="matrix(-1 -1.224647e-16 1.224647e-16 -1 750.6836 109.4112)" class="st3" width="6.174" height="0.273"/>
		
			<rect x="372.255" y="58.538" transform="matrix(-1 -1.224647e-16 1.224647e-16 -1 750.6836 117.3468)" class="st3" width="6.174" height="0.271"/>
		
			<rect x="372.255" y="62.504" transform="matrix(-1 -1.224647e-16 1.224647e-16 -1 750.6836 125.2803)" class="st3" width="6.174" height="0.272"/>
		
			<rect x="372.255" y="66.472" transform="matrix(-1 -1.224647e-16 1.224647e-16 -1 750.6836 133.2149)" class="st3" width="6.174" height="0.271"/>
		
			<rect x="372.255" y="70.439" transform="matrix(-1 -1.224647e-16 1.224647e-16 -1 750.6836 141.1485)" class="st3" width="6.174" height="0.271"/>
		
			<rect x="372.255" y="74.406" transform="matrix(-1 -1.224647e-16 1.224647e-16 -1 750.6836 149.084)" class="st3" width="6.174" height="0.271"/>
		
			<rect x="372.255" y="78.373" transform="matrix(-1 -1.224647e-16 1.224647e-16 -1 750.6836 157.0176)" class="st3" width="6.174" height="0.271"/>
		
			<rect x="372.255" y="82.341" transform="matrix(-1 -1.224647e-16 1.224647e-16 -1 750.6836 164.9532)" class="st3" width="6.174" height="0.271"/>
		
			<rect x="372.255" y="86.308" transform="matrix(-1 -1.224647e-16 1.224647e-16 -1 750.6836 172.8868)" class="st3" width="6.174" height="0.271"/>
		
			<rect x="372.255" y="90.275" transform="matrix(-1 -1.224647e-16 1.224647e-16 -1 750.6836 180.8214)" class="st3" width="6.174" height="0.271"/>
		
			<rect x="372.255" y="94.242" transform="matrix(-1 -1.224647e-16 1.224647e-16 -1 750.6836 188.756)" class="st3" width="6.174" height="0.271"/>
		
			<rect x="372.255" y="98.21" transform="matrix(-1 -1.224647e-16 1.224647e-16 -1 750.6836 196.6905)" class="st3" width="6.174" height="0.271"/>
		
			<rect x="372.255" y="102.177" transform="matrix(-1 -1.224647e-16 1.224647e-16 -1 750.6836 204.625)" class="st3" width="6.174" height="0.271"/>
		
			<rect x="299.537" y="14.587" transform="matrix(-1 -1.224647e-16 1.224647e-16 -1 671.1836 30.67)" class="st3" width="72.109" height="1.496"/>
		<path class="st3" d="M302.166,9.233h67.585l0,0c0-0.825-0.671-1.495-1.497-1.495h-66.088V9.233z"/>
		<path class="st16" d="M370.411,34.269h9.987c0.826,0,1.497-0.671,1.497-1.497l0,0c0-0.826-0.671-1.496-1.497-1.496h-9.987
			c-0.826,0-1.495,0.67-1.495,1.496l0,0C368.916,33.598,369.585,34.269,370.411,34.269z"/>
		<path class="st3" d="M380.079,25.753v5.522h-9.939v-5.646c0-0.646,0.522-1.17,1.169-1.17h7.475
			C379.498,24.459,380.079,25.039,380.079,25.753z"/>
		<polygon class="st3" points="372.085,24.233 379.102,17.216 378.471,16.588 371.762,23.297 		"/>
		<path class="st18" d="M372.439,25.595v3.742c0,0.458-0.372,0.829-0.829,0.829h-2.553c-0.672,0-1.218-0.545-1.218-1.217v-1.026
			c0-1.913,1.552-3.464,3.463-3.464l0,0C371.931,24.459,372.439,24.969,372.439,25.595z"/>
		<path class="st16" d="M371.407,17.305h8.324c0.875,0,1.587-0.711,1.587-1.588l0,0c0-0.876-0.712-1.587-1.587-1.587h-8.324
			c-0.877,0-1.588,0.711-1.588,1.587l0,0C369.819,16.594,370.53,17.305,371.407,17.305z"/>
		
			<rect x="372.868" y="10.539" transform="matrix(-1 -1.224647e-16 1.224647e-16 -1 750.1347 21.8018)" class="st3" width="4.398" height="0.724"/>
		
			<rect x="373.724" y="6.474" transform="matrix(-1 -1.224647e-16 1.224647e-16 -1 750.1347 13.6719)" class="st3" width="2.688" height="0.725"/>
		<path class="st16" d="M320.234,17.864h8.274c0.697,0,1.264-0.565,1.264-1.265l0,0c0-0.699-0.566-1.265-1.264-1.265h-8.274
			c-0.698,0-1.265,0.565-1.265,1.265l0,0C318.97,17.299,319.536,17.864,320.234,17.864z"/>
		<path class="st19" d="M368.859,111.271h12.966v-2.3c0-1.128-0.915-2.044-2.043-2.044h-8.879c-1.129,0-2.044,0.916-2.044,2.044
			V111.271z"/>
		<path class="st20" d="M367.449,113.854h15.786c0.467,0,0.846-0.378,0.846-0.845v-0.77c0-0.584-0.475-1.059-1.059-1.059h-15.361
			c-0.583,0-1.058,0.475-1.058,1.059v0.77C366.603,113.476,366.982,113.854,367.449,113.854z"/>
		<path class="st3" d="M310.061,66.806c0.07,0,0.142-0.023,0.201-0.068l14.31-10.89c0.147-0.111,0.176-0.32,0.063-0.466
			c-0.111-0.148-0.319-0.177-0.468-0.064l-14.309,10.889c-0.147,0.111-0.177,0.321-0.064,0.468
			C309.861,66.76,309.961,66.806,310.061,66.806z"/>
		<path class="st18" d="M323.286,52.738c0.184-0.098,0.307-0.347,0.307-0.621v-1.98h1.555v1.98c0,0.863-0.436,1.628-1.139,1.998
			c-0.257,0.136-0.416,0.399-0.416,0.69c0,0.428,0.35,0.777,0.777,0.777c0.429,0,0.777-0.35,0.777-0.777
			c0-0.431,0.349-0.778,0.778-0.778c0.431,0,0.778,0.348,0.778,0.778c0,1.286-1.046,2.333-2.334,2.333
			c-1.286,0-2.334-1.047-2.334-2.333C322.036,53.935,322.516,53.143,323.286,52.738L323.286,52.738z"/>
		
			<rect x="323.591" y="17.864" transform="matrix(-1 -1.224647e-16 1.224647e-16 -1 648.7402 63.8477)" class="st18" width="1.559" height="28.119"/>
		<path class="st3" d="M324.37,51.13L324.37,51.13c1.047,0,1.893-0.848,1.893-1.894v-3.341c0-1.046-0.847-1.892-1.893-1.892l0,0
			c-1.045,0-1.893,0.846-1.893,1.892v3.341C322.477,50.282,323.325,51.13,324.37,51.13z"/>
		<path class="st3" d="M338.681,66.806c0.1,0,0.199-0.046,0.266-0.132c0.111-0.146,0.083-0.356-0.064-0.468l-14.31-10.889
			c-0.146-0.111-0.355-0.084-0.467,0.064c-0.111,0.146-0.083,0.354,0.063,0.466l14.311,10.89
			C338.539,66.782,338.609,66.806,338.681,66.806z"/>
		<path class="st21" d="M309.392,67.932h29.291c0.45,0,0.815-0.364,0.815-0.815v-0.622c0-0.45-0.365-0.815-0.815-0.815h-29.291
			c-0.451,0-0.816,0.365-0.816,0.815v0.622C308.576,67.567,308.94,67.932,309.392,67.932z"/>
	</g>
	<g>
		<path class="st8" d="M347.916,112.568c0,2.842,2.305,5.146,5.147,5.146c2.844,0,5.148-2.305,5.148-5.146
			c0-2.845-2.305-5.148-5.148-5.148C350.221,107.42,347.916,109.724,347.916,112.568z"/>
		<path class="st3" d="M326.701,114.536v-5.821c0,0-0.452-3.391,11.982-3.391h9.807c0.366,0,0.704,0.196,0.886,0.514l0.256,0.447
			c0.211,0.371,0.163,0.836-0.122,1.153l-3.31,3.706v3.392H326.701z"/>
		<path class="st4" d="M348.489,105.324l-1.004-7.188c-0.09-0.642-0.639-1.119-1.287-1.119h-6.668c-0.718,0-1.3,0.582-1.3,1.299
			v7.009H348.489z"/>
		<path class="st7" d="M346.631,98.326l0.842,5.384c0.053,0.343-0.213,0.652-0.561,0.652h-2.239v-6.518h1.399
			C346.352,97.845,346.589,98.048,346.631,98.326z"/>
		<path class="st7" d="M339.775,104.362h4.333v-6.518h-4.333c-0.353,0-0.641,0.287-0.641,0.642v5.235
			C339.135,104.076,339.423,104.362,339.775,104.362z"/>
		<path class="st10" d="M348.768,112.568c0,2.371,1.923,4.296,4.296,4.296c2.373,0,4.298-1.925,4.298-4.296
			c0-2.375-1.925-4.299-4.298-4.299C350.69,108.27,348.768,110.193,348.768,112.568z"/>
		<path class="st10" d="M329.711,111.145c0.832-1.541,2.463-2.59,4.337-2.59c1.876,0,3.506,1.049,4.339,2.59h7.813v3.392h-7.338
			h-9.625h-2.535v-3.392H329.711z"/>
		<path class="st4" d="M328.99,111.937v1.963c0,0.633-0.512,1.146-1.144,1.146h-1.275c-0.247,0-0.489-0.071-0.695-0.206
			l-1.309-0.849c-0.237-0.152-0.38-0.417-0.38-0.698v-1.313c0-0.461,0.373-0.835,0.832-0.835h3.18
			C328.638,111.145,328.99,111.499,328.99,111.937z"/>
		<path class="st3" d="M344.115,114.859l15.563-0.438c0.393-0.01,0.705-0.331,0.705-0.723v-1.096c0-0.393-0.313-0.713-0.705-0.725
			l-15.563-0.436c-0.313-0.009-0.571,0.243-0.571,0.558v2.3C343.544,114.616,343.803,114.868,344.115,114.859z"/>
		<path class="st10" d="M352.536,113.095c0,0.291,0.237,0.526,0.527,0.526c0.291,0,0.528-0.235,0.528-0.526
			s-0.237-0.526-0.528-0.526C352.773,112.568,352.536,112.804,352.536,113.095z"/>
		<path class="st13" d="M329.814,113.481c0,2.338,1.896,4.233,4.233,4.233c2.339,0,4.233-1.896,4.233-4.233
			c0-2.338-1.895-4.234-4.233-4.234C331.71,109.247,329.814,111.144,329.814,113.481z"/>
		<path class="st3" d="M331.953,113.481c0,1.156,0.938,2.094,2.095,2.094c1.158,0,2.097-0.938,2.097-2.094
			c0-1.158-0.939-2.096-2.097-2.096C332.891,111.386,331.953,112.323,331.953,113.481z"/>
		<path class="st10" d="M341.237,110.342h2.56c0.185,0,0.35-0.118,0.406-0.293l0.184-0.566c0.09-0.275-0.116-0.559-0.406-0.559
			h-2.93c-0.29,0-0.496,0.283-0.405,0.559l0.184,0.566C340.888,110.224,341.053,110.342,341.237,110.342z"/>
		<path class="st22" d="M338.118,108.555L338.118,108.555c0.062,0,0.112-0.05,0.112-0.113v-2.522c0-0.063-0.051-0.113-0.112-0.113
			l0,0c-0.063,0-0.114,0.051-0.114,0.113v2.522C338.004,108.505,338.055,108.555,338.118,108.555z"/>
		<path class="st22" d="M337.698,108.555L337.698,108.555c0.063,0,0.113-0.05,0.113-0.113v-2.522c0-0.063-0.051-0.113-0.113-0.113
			l0,0c-0.063,0-0.112,0.051-0.112,0.113v2.522C337.586,108.505,337.636,108.555,337.698,108.555z"/>
		<path class="st22" d="M337.279,108.555L337.279,108.555c0.063,0,0.111-0.05,0.111-0.113v-2.522c0-0.063-0.049-0.113-0.111-0.113
			l0,0c-0.064,0-0.114,0.051-0.114,0.113v2.522C337.165,108.505,337.216,108.555,337.279,108.555z"/>
		<path class="st22" d="M336.859,108.555L336.859,108.555c0.063,0,0.112-0.05,0.112-0.113v-2.522c0-0.063-0.05-0.113-0.112-0.113
			l0,0c-0.063,0-0.113,0.051-0.113,0.113v2.522C336.746,108.505,336.796,108.555,336.859,108.555z"/>
	</g>
	<path class="st23" d="M34.877,117.715h16.756c0,0-5.85-6.814-8.377-6.822C40.727,110.886,34.877,117.715,34.877,117.715z"/>
	<g>
		<path class="st24" d="M104.056,109.528h-1.391v-0.974c0-0.374,0.299-0.674,0.674-0.674h0.032c0.374,0,0.674,0.3,0.674,0.674v0.974
			H104.056L104.056,109.528z"/>
		<path class="st25" d="M104.205,109.678h-1.69v-0.171c0-0.086,0.064-0.149,0.15-0.149h1.38c0.085,0,0.149,0.063,0.149,0.149v0.171
			H104.205L104.205,109.678z"/>
		<path class="st26" d="M103.178,108.352c-0.096,0.085-0.225,0.117-0.277,0.075c-0.054-0.054-0.021-0.172,0.074-0.257
			c0.097-0.086,0.225-0.118,0.278-0.075C103.317,108.138,103.274,108.255,103.178,108.352L103.178,108.352z"/>
		<path class="st24" d="M113.55,109.528h-1.391v-0.974c0-0.374,0.3-0.674,0.674-0.674h0.032c0.374,0,0.674,0.3,0.674,0.674v0.974
			H113.55L113.55,109.528z"/>
		<path class="st25" d="M113.699,109.678h-1.689v-0.171c0-0.086,0.064-0.149,0.149-0.149h1.38c0.085,0,0.15,0.063,0.15,0.149v0.171
			H113.699L113.699,109.678z"/>
		<path class="st26" d="M112.673,108.352c-0.097,0.085-0.225,0.117-0.278,0.075c-0.054-0.054-0.021-0.172,0.075-0.257
			c0.096-0.086,0.225-0.118,0.278-0.075C112.811,108.138,112.769,108.255,112.673,108.352L112.673,108.352z"/>
		<polygon class="st27" points="111.809,113.792 112.854,113.792 112.854,117.715 111.809,117.715 111.809,113.792 		"/>
		<path class="st25" d="M113.515,117.715v-0.276c0-0.169-0.138-0.323-0.322-0.323h-1.721c-0.169,0-0.322,0.139-0.322,0.323v0.276
			H113.515L113.515,117.715z"/>
		<polygon class="st27" points="103.359,113.792 104.404,113.792 104.404,117.715 103.359,117.715 103.359,113.792 		"/>
		<path class="st28" d="M114.268,109.69h-12.321c-0.076,0-0.153,0.062-0.153,0.153v3.795c0,0.076,0.062,0.153,0.153,0.153h12.321
			c0.077,0,0.154-0.062,0.154-0.153v-3.795C114.422,109.752,114.345,109.69,114.268,109.69L114.268,109.69z"/>
		<polygon class="st24" points="113.699,113.792 112.425,113.792 111.564,109.69 112.839,109.69 113.699,113.792 		"/>
		<polygon class="st24" points="110.673,113.792 109.413,113.792 108.553,109.69 109.828,109.69 110.673,113.792 		"/>
		<polygon class="st24" points="107.662,113.792 106.387,113.792 105.542,109.69 106.801,109.69 107.662,113.792 		"/>
		<polygon class="st24" points="104.65,113.792 103.375,113.792 102.515,109.69 103.79,109.69 104.65,113.792 		"/>
		<path class="st25" d="M105.065,117.715v-0.276c0-0.169-0.138-0.323-0.323-0.323h-1.72c-0.169,0-0.323,0.139-0.323,0.323v0.276
			H105.065L105.065,117.715z"/>
	</g>
	<g>
		<path class="st24" d="M305.675,109.528h-1.391v-0.974c0-0.374,0.299-0.674,0.674-0.674h0.032c0.374,0,0.674,0.3,0.674,0.674v0.974
			H305.675L305.675,109.528z"/>
		<path class="st25" d="M305.824,109.678h-1.69v-0.171c0-0.086,0.064-0.149,0.15-0.149h1.38c0.085,0,0.149,0.063,0.149,0.149v0.171
			H305.824L305.824,109.678z"/>
		<path class="st26" d="M304.797,108.352c-0.096,0.085-0.225,0.117-0.277,0.075c-0.054-0.054-0.022-0.172,0.074-0.257
			c0.097-0.086,0.225-0.118,0.278-0.075C304.936,108.138,304.893,108.255,304.797,108.352L304.797,108.352z"/>
		<path class="st24" d="M315.169,109.528h-1.391v-0.974c0-0.374,0.3-0.674,0.674-0.674h0.032c0.374,0,0.674,0.3,0.674,0.674v0.974
			H315.169L315.169,109.528z"/>
		<path class="st25" d="M315.318,109.678h-1.689v-0.171c0-0.086,0.064-0.149,0.149-0.149h1.38c0.085,0,0.15,0.063,0.15,0.149v0.171
			H315.318L315.318,109.678z"/>
		<path class="st26" d="M314.292,108.352c-0.097,0.085-0.225,0.117-0.278,0.075c-0.054-0.054-0.021-0.172,0.075-0.257
			c0.096-0.086,0.225-0.118,0.278-0.075C314.431,108.138,314.389,108.255,314.292,108.352L314.292,108.352z"/>
		<polygon class="st27" points="313.429,113.792 314.474,113.792 314.474,117.715 313.429,117.715 313.429,113.792 		"/>
		<path class="st25" d="M315.134,117.715v-0.276c0-0.169-0.138-0.323-0.322-0.323h-1.721c-0.169,0-0.322,0.139-0.322,0.323v0.276
			H315.134L315.134,117.715z"/>
		<polygon class="st27" points="304.978,113.792 306.023,113.792 306.023,117.715 304.978,117.715 304.978,113.792 		"/>
		<path class="st28" d="M315.887,109.69h-12.321c-0.076,0-0.153,0.062-0.153,0.153v3.795c0,0.076,0.062,0.153,0.153,0.153h12.321
			c0.077,0,0.154-0.062,0.154-0.153v-3.795C316.041,109.752,315.964,109.69,315.887,109.69L315.887,109.69z"/>
		<polygon class="st24" points="315.318,113.792 314.044,113.792 313.184,109.69 314.458,109.69 315.318,113.792 		"/>
		<polygon class="st24" points="312.292,113.792 311.032,113.792 310.172,109.69 311.447,109.69 312.292,113.792 		"/>
		<polygon class="st24" points="309.281,113.792 308.006,113.792 307.161,109.69 308.42,109.69 309.281,113.792 		"/>
		<polygon class="st24" points="306.27,113.792 304.994,113.792 304.134,109.69 305.409,109.69 306.27,113.792 		"/>
		<path class="st25" d="M306.684,117.715v-0.276c0-0.169-0.138-0.323-0.323-0.323h-1.72c-0.169,0-0.323,0.139-0.323,0.323v0.276
			H306.684L306.684,117.715z"/>
	</g>
</g>
<rect x="20.471" y="140.69" class="st0" width="337.656" height="1"/>
<g>
	<path class="st29" d="M98.711,198.023v-8.52h3.504c0.36,0,0.691,0.075,0.996,0.228c0.304,0.152,0.565,0.354,0.786,0.606
		c0.22,0.252,0.392,0.535,0.516,0.852s0.186,0.634,0.186,0.954c0,0.344-0.058,0.676-0.174,0.996s-0.28,0.604-0.491,0.852
		c-0.213,0.248-0.467,0.446-0.763,0.594c-0.296,0.148-0.624,0.223-0.983,0.223h-2.965v3.216H98.711z M99.323,194.243h2.94
		c0.28,0,0.532-0.058,0.756-0.174s0.414-0.271,0.57-0.468s0.275-0.42,0.359-0.672c0.085-0.252,0.127-0.515,0.127-0.786
		c0-0.28-0.051-0.546-0.15-0.798c-0.101-0.252-0.236-0.475-0.408-0.666c-0.172-0.192-0.372-0.344-0.6-0.456
		c-0.229-0.112-0.471-0.168-0.727-0.168h-2.868V194.243z"/>
	<path class="st29" d="M107.363,198.023v-8.52h0.611v7.968h5.089v0.552H107.363z"/>
	<path class="st29" d="M121.211,197.472v0.552h-5.676v-8.52h5.567v0.552h-4.956v3.348h4.332v0.528h-4.332v3.54H121.211z"/>
	<path class="st29" d="M126.755,189.504h0.528l3.6,8.52h-0.647l-1.188-2.808h-4.068l-1.188,2.808h-0.66L126.755,189.504z
		 M128.879,194.712l-1.86-4.465l-1.896,4.465H128.879z"/>
	<path class="st29" d="M138.204,190.92c-0.553-0.616-1.332-0.925-2.34-0.925c-0.833,0-1.438,0.158-1.818,0.475
		c-0.38,0.315-0.57,0.742-0.57,1.277c0,0.272,0.048,0.498,0.145,0.679c0.096,0.18,0.246,0.334,0.45,0.462
		c0.203,0.128,0.462,0.235,0.773,0.324c0.313,0.088,0.688,0.18,1.128,0.275c0.456,0.096,0.87,0.202,1.242,0.318
		s0.688,0.262,0.948,0.438c0.26,0.177,0.46,0.393,0.6,0.648s0.21,0.572,0.21,0.948s-0.074,0.704-0.222,0.983
		c-0.148,0.28-0.356,0.515-0.624,0.702c-0.269,0.188-0.588,0.33-0.96,0.426c-0.372,0.097-0.786,0.145-1.242,0.145
		c-1.328,0-2.452-0.424-3.372-1.272l0.324-0.492c0.359,0.377,0.8,0.675,1.32,0.895c0.52,0.22,1.104,0.33,1.752,0.33
		c0.743,0,1.325-0.136,1.745-0.408c0.421-0.271,0.631-0.684,0.631-1.236c0-0.279-0.057-0.518-0.168-0.714
		c-0.112-0.195-0.278-0.366-0.498-0.51c-0.221-0.145-0.498-0.268-0.834-0.372c-0.336-0.104-0.729-0.204-1.177-0.3
		c-0.456-0.096-0.857-0.198-1.206-0.307c-0.348-0.107-0.64-0.243-0.876-0.407c-0.235-0.164-0.414-0.362-0.533-0.595
		c-0.12-0.231-0.181-0.523-0.181-0.876c0-0.384,0.074-0.724,0.223-1.02c0.147-0.296,0.354-0.546,0.617-0.75
		c0.265-0.204,0.58-0.358,0.948-0.462c0.368-0.104,0.776-0.156,1.225-0.156c0.552,0,1.044,0.082,1.476,0.246s0.824,0.414,1.176,0.75
		L138.204,190.92z"/>
	<path class="st29" d="M147.383,197.472v0.552h-5.676v-8.52h5.567v0.552h-4.956v3.348h4.332v0.528h-4.332v3.54H147.383z"/>
	<path class="st29" d="M153.947,193.703c0-0.512,0.09-1.021,0.27-1.529c0.18-0.509,0.442-0.962,0.786-1.362s0.766-0.727,1.266-0.979
		s1.07-0.378,1.71-0.378c0.761,0,1.408,0.175,1.944,0.522s0.937,0.794,1.2,1.338l-0.504,0.288c-0.152-0.296-0.33-0.544-0.534-0.744
		s-0.424-0.361-0.66-0.486c-0.236-0.124-0.481-0.214-0.738-0.27c-0.256-0.056-0.508-0.084-0.756-0.084
		c-0.544,0-1.023,0.11-1.439,0.33s-0.769,0.506-1.057,0.857c-0.288,0.353-0.506,0.75-0.653,1.194
		c-0.148,0.444-0.223,0.89-0.223,1.338c0,0.504,0.088,0.984,0.265,1.44c0.176,0.456,0.416,0.857,0.72,1.206
		c0.304,0.348,0.664,0.626,1.08,0.834s0.864,0.312,1.344,0.312c0.256,0,0.521-0.031,0.792-0.096c0.272-0.064,0.532-0.164,0.78-0.3
		c0.248-0.137,0.479-0.311,0.696-0.522c0.216-0.212,0.396-0.462,0.54-0.75l0.527,0.252c-0.144,0.32-0.34,0.604-0.588,0.853
		s-0.524,0.456-0.828,0.624s-0.626,0.294-0.966,0.378s-0.674,0.126-1.002,0.126c-0.584,0-1.118-0.128-1.602-0.384
		c-0.484-0.257-0.902-0.591-1.255-1.003c-0.352-0.411-0.626-0.88-0.821-1.403C154.044,194.781,153.947,194.248,153.947,193.703z"/>
	<path class="st29" d="M167.327,198.083c-0.592,0-1.132-0.123-1.62-0.371c-0.487-0.248-0.907-0.572-1.26-0.973
		c-0.352-0.399-0.624-0.859-0.815-1.38c-0.192-0.52-0.288-1.052-0.288-1.596c0-0.568,0.102-1.112,0.306-1.632
		c0.204-0.521,0.484-0.98,0.84-1.381c0.356-0.399,0.778-0.718,1.267-0.953c0.487-0.236,1.016-0.354,1.584-0.354
		c0.592,0,1.134,0.126,1.626,0.378c0.491,0.252,0.911,0.582,1.26,0.99c0.348,0.408,0.618,0.87,0.81,1.386
		c0.192,0.517,0.288,1.038,0.288,1.566c0,0.576-0.102,1.124-0.306,1.644c-0.204,0.521-0.484,0.979-0.84,1.374
		c-0.356,0.396-0.778,0.712-1.267,0.948C168.423,197.966,167.895,198.083,167.327,198.083z M163.955,193.764
		c0,0.488,0.082,0.958,0.246,1.41s0.396,0.852,0.696,1.199c0.3,0.349,0.658,0.626,1.074,0.834c0.416,0.209,0.872,0.313,1.368,0.313
		c0.512,0,0.974-0.108,1.386-0.324s0.764-0.502,1.056-0.857c0.292-0.356,0.518-0.759,0.678-1.206c0.16-0.448,0.24-0.904,0.24-1.368
		c0-0.488-0.084-0.958-0.252-1.41s-0.401-0.853-0.702-1.2c-0.3-0.348-0.653-0.626-1.062-0.834s-0.856-0.312-1.344-0.312
		c-0.513,0-0.977,0.107-1.393,0.323c-0.416,0.217-0.771,0.503-1.067,0.858c-0.297,0.356-0.524,0.758-0.685,1.206
		S163.955,193.3,163.955,193.764z"/>
	<path class="st29" d="M181.882,198.023v-7.368l-3.36,5.748h-0.384l-3.36-5.748v7.368h-0.611v-8.52h0.611l3.553,6.096l3.552-6.096
		h0.612v8.52H181.882z"/>
	<path class="st29" d="M191.602,197.472v0.552h-5.675v-8.52h5.568v0.552h-4.957v3.348h4.332v0.528h-4.332v3.54H191.602z"/>
	<path class="st29" d="M205.029,195.815c0,0.312-0.059,0.603-0.18,0.87c-0.119,0.268-0.283,0.502-0.492,0.702
		c-0.207,0.2-0.451,0.355-0.73,0.468c-0.281,0.112-0.576,0.168-0.889,0.168h-3.984v-8.52h3.973c0.295,0,0.564,0.063,0.803,0.191
		c0.24,0.128,0.445,0.294,0.613,0.498s0.297,0.437,0.389,0.696c0.094,0.26,0.139,0.521,0.139,0.786c0,0.432-0.107,0.828-0.324,1.188
		c-0.215,0.36-0.516,0.624-0.9,0.792c0.488,0.145,0.875,0.414,1.158,0.811C204.889,194.861,205.029,195.312,205.029,195.815z
		 M199.365,190.056v3.408h3.121c0.232,0,0.443-0.049,0.637-0.145c0.191-0.096,0.357-0.222,0.498-0.378
		c0.139-0.156,0.25-0.338,0.328-0.546c0.08-0.208,0.121-0.42,0.121-0.636c0-0.232-0.039-0.45-0.113-0.654
		c-0.076-0.204-0.182-0.384-0.313-0.54c-0.133-0.156-0.291-0.28-0.475-0.372s-0.389-0.138-0.611-0.138H199.365z M204.418,195.731
		c0-0.224-0.039-0.442-0.119-0.654s-0.193-0.399-0.336-0.563c-0.145-0.164-0.314-0.294-0.51-0.391
		c-0.197-0.096-0.406-0.144-0.631-0.144h-3.457v3.492h3.373c0.24,0,0.461-0.048,0.666-0.145c0.203-0.096,0.379-0.226,0.527-0.39
		s0.266-0.35,0.355-0.558C204.375,196.172,204.418,195.955,204.418,195.731z"/>
	<path class="st29" d="M210.395,189.504h0.527l3.6,8.52h-0.646l-1.189-2.808h-4.068l-1.188,2.808h-0.66L210.395,189.504z
		 M212.518,194.712l-1.859-4.465l-1.896,4.465H212.518z"/>
	<path class="st29" d="M216.119,193.703c0-0.512,0.09-1.021,0.27-1.529c0.18-0.509,0.441-0.962,0.785-1.362s0.766-0.727,1.266-0.979
		s1.07-0.378,1.711-0.378c0.76,0,1.408,0.175,1.943,0.522c0.537,0.348,0.938,0.794,1.201,1.338l-0.504,0.288
		c-0.152-0.296-0.33-0.544-0.535-0.744c-0.203-0.2-0.424-0.361-0.66-0.486c-0.236-0.124-0.48-0.214-0.738-0.27
		c-0.256-0.056-0.508-0.084-0.756-0.084c-0.543,0-1.023,0.11-1.439,0.33s-0.768,0.506-1.057,0.857
		c-0.287,0.353-0.506,0.75-0.652,1.194c-0.148,0.444-0.223,0.89-0.223,1.338c0,0.504,0.088,0.984,0.264,1.44
		s0.416,0.857,0.721,1.206c0.303,0.348,0.664,0.626,1.08,0.834s0.863,0.312,1.344,0.312c0.256,0,0.52-0.031,0.791-0.096
		c0.273-0.064,0.533-0.164,0.781-0.3c0.248-0.137,0.479-0.311,0.695-0.522s0.396-0.462,0.541-0.75l0.527,0.252
		c-0.145,0.32-0.34,0.604-0.588,0.853s-0.525,0.456-0.828,0.624c-0.305,0.168-0.627,0.294-0.967,0.378s-0.674,0.126-1.002,0.126
		c-0.584,0-1.117-0.128-1.602-0.384c-0.484-0.257-0.902-0.591-1.254-1.003c-0.352-0.411-0.627-0.88-0.822-1.403
		C216.217,194.781,216.119,194.248,216.119,193.703z"/>
	<path class="st29" d="M226.186,198.023v-8.52h0.611v5.172l4.969-5.172h0.709l-3.541,3.731l3.721,4.788h-0.697l-3.42-4.416
		l-1.74,1.788v2.628H226.186z"/>
	<path class="st29" d="M239.146,198.023v-8.52h0.611v7.968h5.088v0.552H239.146z"/>
	<path class="st29" d="M249.994,189.504h0.527l3.6,8.52h-0.646l-1.189-2.808h-4.068l-1.188,2.808h-0.66L249.994,189.504z
		 M252.117,194.712l-1.859-4.465l-1.896,4.465H252.117z"/>
	<path class="st29" d="M261.73,190.056h-3.121v7.968h-0.611v-7.968h-3.121v-0.552h6.854V190.056z"/>
	<path class="st29" d="M269.926,197.472v0.552h-5.676v-8.52h5.566v0.552h-4.955v3.348h4.332v0.528h-4.332v3.54H269.926z"/>
	<path class="st29" d="M272.793,198.023v-8.52h3.541c0.359,0,0.691,0.075,0.996,0.228c0.303,0.152,0.564,0.354,0.785,0.606
		c0.221,0.252,0.393,0.535,0.516,0.852c0.125,0.316,0.186,0.634,0.186,0.954c0,0.312-0.047,0.614-0.143,0.906
		s-0.232,0.554-0.408,0.785c-0.176,0.232-0.389,0.425-0.637,0.576c-0.248,0.152-0.52,0.252-0.816,0.301l2.125,3.312h-0.709
		l-2.063-3.216h-2.762v3.216H272.793z M273.404,194.243h2.988c0.273,0,0.521-0.06,0.744-0.18c0.225-0.12,0.416-0.278,0.576-0.474
		c0.16-0.196,0.283-0.42,0.367-0.673c0.084-0.252,0.125-0.51,0.125-0.773c0-0.272-0.051-0.534-0.15-0.786s-0.236-0.474-0.408-0.666
		s-0.371-0.346-0.6-0.462s-0.473-0.174-0.738-0.174h-2.904V194.243z"/>
</g>
</svg>